<svg width="7" height="12" viewBox="0 0 7 12" fill="none" xmlns="http://www.w3.org/2000/svg">
<path d="M5.97951 12C6.0603 12 6.14757 11.9871 6.23483 11.958C6.53539 11.8643 6.70991 11.6639 6.77132 11.3504C6.81657 11.108 6.75839 10.8947 6.59357 10.7008C6.56448 10.6685 6.53216 10.6329 6.49661 10.5974L2.13356 6.23431C2.11094 6.21169 2.09155 6.18907 2.06569 6.16644L2.03337 6.13089L1.9041 5.99838L2.03014 5.86588C2.04307 5.85295 2.05276 5.84002 2.06569 5.83033C2.09155 5.80447 2.11417 5.77862 2.13679 5.75599L3.71072 4.18206C4.64797 3.24805 5.58199 2.3108 6.516 1.37678C6.79071 1.10207 6.85858 0.762726 6.70668 0.449232C6.60003 0.226232 6.42874 0.087261 6.17988 0.0193913C6.15726 0.0129276 6.13787 0.00646378 6.11848 0L5.88255 0C5.65955 0.0484783 5.48503 0.187449 5.27819 0.397522C3.45863 2.22354 1.65201 4.0237 0.281689 5.39402C0.0134425 5.66227 -0.0608907 5.93375 0.0489931 6.25047C0.0877762 6.36359 0.162109 6.47994 0.252603 6.57043C2.0463 8.37059 3.86585 10.1869 5.43332 11.7511C5.59814 11.916 5.78236 12 5.97951 12Z" fill="#212121"/>
</svg>
