<svg width="70" height="70" viewBox="0 0 70 70" fill="none" xmlns="http://www.w3.org/2000/svg">
<circle opacity="0.1" cx="35" cy="35" r="35" fill="#1D8BFA"/>
<g clip-path="url(#clip0_484_857)">
<path d="M50.2682 40.55C50.2236 40.7822 50.1878 41.0055 50.1253 41.2288C49.518 43.4884 48.0801 44.8906 45.7847 45.3907C45.6954 45.4086 45.6061 45.4265 45.4811 45.4622C45.4811 45.5783 45.4811 45.7033 45.4811 45.8194C45.4811 47.4539 45.4811 49.0972 45.4811 50.7316C45.4811 51.4551 45.1149 51.9105 44.4986 51.9909C44.0878 52.0445 43.7752 51.857 43.4983 51.5801C42.1051 50.1779 40.7118 48.7846 39.3096 47.3913C38.7559 46.8376 38.1932 46.2928 37.6484 45.7301C37.4876 45.5604 37.3269 45.4979 37.0947 45.4979C32.9238 45.5069 28.7529 45.5247 24.582 45.4979C22.242 45.4801 20.5362 44.3815 19.5001 42.2738C19.1429 41.5503 19.0089 40.7733 19.0089 39.9695C19.0089 35.8254 19 31.6813 19.0089 27.5462C19.0178 24.715 20.9827 22.4643 23.7603 22.0624C24.0729 22.0177 24.3855 22.0088 24.707 22.0088C31.334 22.0088 37.9521 22.0088 44.579 22.0088C47.2137 22.0088 49.393 23.5896 50.0539 25.9921C50.1432 26.3047 50.1968 26.6262 50.2682 26.9388C50.2682 31.467 50.2682 36.013 50.2682 40.55ZM43.159 48.2755C43.2036 48.2398 43.2483 48.2041 43.2929 48.1773C43.2929 48.0791 43.2929 47.9808 43.2929 47.8826C43.2929 46.7304 43.284 45.5783 43.2929 44.4351C43.3019 43.7563 43.7484 43.3187 44.4272 43.3008C44.5165 43.3008 44.6147 43.3008 44.7041 43.3008C46.6332 43.2919 48.0711 41.8718 48.0711 39.9427C48.0801 35.8165 48.0801 31.6992 48.0711 27.5729C48.0711 25.6438 46.66 24.1969 44.7309 24.188C38.0056 24.1791 31.2804 24.1791 24.5463 24.188C22.6171 24.188 21.1971 25.6349 21.1971 27.564C21.1881 31.6902 21.1971 35.8075 21.1971 39.9338C21.1971 40.2196 21.2239 40.5054 21.2864 40.7822C21.6526 42.2916 22.9565 43.3008 24.5463 43.3008C28.9136 43.3008 33.281 43.3098 37.6484 43.3008C38.1039 43.3008 38.4701 43.4437 38.7916 43.7742C40.1849 45.1853 41.596 46.5786 42.9982 47.9897C43.0786 48.0612 43.1054 48.1773 43.159 48.2755Z" fill="#1D8BFA"/>
<path d="M42.3195 30.2351C42.1855 29.9582 41.9712 29.8242 41.6943 29.8242C41.1048 29.8242 40.5243 29.8242 39.9348 29.8242C39.1667 29.8242 38.4076 29.8242 37.6395 29.8242C37.2465 29.8242 37.0054 30.0654 36.9965 30.4762C36.9965 30.6459 36.9965 30.8156 36.9965 30.9853V31.1192C36.9965 31.6105 37.2287 31.8337 37.7199 31.8337C37.961 31.8337 38.2022 31.8337 38.4433 31.8337C38.5505 31.8337 38.6577 31.8337 38.7738 31.8337C37.7824 32.7358 37.1572 33.3253 36.541 33.8969C35.8979 34.5042 35.2281 35.1294 34.1385 36.1118C33.1471 35.2098 32.8702 34.9507 32.6023 34.7007C32.3344 34.4506 32.0486 34.1827 31.0393 33.2627L30.5213 32.8072C29.8604 32.2089 29.2084 31.6105 28.5475 31.0121C28.2171 30.7173 27.8955 30.7263 27.5919 31.0478C27.5294 31.1103 27.4758 31.1728 27.4132 31.2354C27.3775 31.28 27.3329 31.3157 27.2971 31.3604C27.0828 31.5926 26.9131 31.7891 26.922 32.0213C26.931 32.2446 27.1185 32.4321 27.3597 32.6554C28.8601 34.0219 29.6282 34.7275 30.3784 35.4152C31.1197 36.0939 31.8789 36.7906 33.3436 38.1303C33.6115 38.3714 33.8705 38.4875 34.1295 38.4875C34.3885 38.4875 34.6475 38.3714 34.9065 38.1392C36.148 37.0139 36.9161 36.2994 37.6663 35.6027C38.3897 34.924 39.131 34.2273 40.3189 33.1645C40.3189 33.2717 40.3189 33.3788 40.3189 33.486C40.3189 33.8165 40.3189 34.1469 40.3189 34.4774C40.3189 34.924 40.56 35.1651 41.0066 35.1651C41.078 35.1651 41.1495 35.1651 41.2209 35.1651C41.346 35.1651 41.4621 35.1651 41.5871 35.1651C41.9354 35.183 42.1855 35.049 42.3284 34.7453L42.3463 34.7096V30.2708L42.3195 30.2351Z" fill="#1D8BFA"/>
</g>
<defs>
<clipPath id="clip0_484_857">
<rect width="31.2682" height="30" fill="white" transform="translate(19 22)"/>
</clipPath>
</defs>
</svg>
