<svg width="70" height="70" viewBox="0 0 70 70" fill="none" xmlns="http://www.w3.org/2000/svg">
<circle opacity="0.1" cx="35" cy="35" r="35" fill="#F78F1E"/>
<g clip-path="url(#clip0_484_835)">
<path d="M50.2682 40.55C50.2236 40.7822 50.1879 41.0055 50.1253 41.2288C49.518 43.4884 48.0801 44.8906 45.7848 45.3907C45.6954 45.4086 45.6061 45.4265 45.4811 45.4622C45.4811 45.5783 45.4811 45.7033 45.4811 45.8194C45.4811 47.4539 45.4811 49.0972 45.4811 50.7316C45.4811 51.4551 45.1149 51.9105 44.4987 51.9909C44.0878 52.0445 43.7752 51.857 43.4984 51.5801C42.1051 50.1779 40.7118 48.7846 39.3096 47.3913C38.7559 46.8376 38.1932 46.2928 37.6484 45.7301C37.4876 45.5604 37.3269 45.4979 37.0947 45.4979C32.9238 45.5069 28.7529 45.5247 24.582 45.4979C22.242 45.4801 20.5362 44.3815 19.5001 42.2737C19.1429 41.5503 19.0089 40.7733 19.0089 39.9695C19.0089 35.8254 19 31.6813 19.0089 27.5462C19.0179 24.715 20.9827 22.4643 23.7603 22.0624C24.0729 22.0177 24.3855 22.0088 24.7071 22.0088C31.334 22.0088 37.9521 22.0088 44.579 22.0088C47.2138 22.0088 49.393 23.5896 50.0539 25.9921C50.1432 26.3047 50.1968 26.6262 50.2682 26.9388C50.2682 31.467 50.2682 36.013 50.2682 40.55ZM43.159 48.2755C43.2036 48.2398 43.2483 48.2041 43.2929 48.1773C43.2929 48.079 43.2929 47.9808 43.2929 47.8826C43.2929 46.7304 43.284 45.5783 43.2929 44.4351C43.3019 43.7563 43.7484 43.3187 44.4272 43.3008C44.5165 43.3008 44.6148 43.3008 44.7041 43.3008C46.6332 43.2919 48.0712 41.8718 48.0712 39.9427C48.0801 35.8165 48.0801 31.6992 48.0712 27.5729C48.0712 25.6438 46.66 24.1969 44.7309 24.188C38.0057 24.1791 31.2804 24.1791 24.5463 24.188C22.6171 24.188 21.1971 25.6349 21.1971 27.564C21.1881 31.6902 21.1971 35.8075 21.1971 39.9338C21.1971 40.2196 21.2239 40.5054 21.2864 40.7822C21.6526 42.2916 22.9565 43.3008 24.5463 43.3008C28.9137 43.3008 33.281 43.3098 37.6484 43.3008C38.1039 43.3008 38.4701 43.4437 38.7916 43.7742C40.1849 45.1853 41.596 46.5786 42.9982 47.9897C43.0786 48.0612 43.1054 48.1773 43.159 48.2755Z" fill="#F78F1E"/>
<path d="M40.3635 31.1186C40.2653 30.7793 40.0062 30.5203 39.6937 30.422C39.265 30.288 38.8809 30.3863 38.5505 30.7257C37.5234 31.7617 36.4873 32.7888 35.4603 33.8248L33.0756 36.2184C32.2986 35.4324 31.5126 34.6554 30.7356 33.8695C30.2891 33.4229 29.6639 33.3961 29.2173 33.798C28.994 33.9945 28.9137 34.2535 28.8779 34.4321L28.869 34.45V34.6911V34.7269C28.9226 34.9859 29.0387 35.1913 29.2084 35.3699C29.5567 35.7182 29.905 36.0665 30.2533 36.4149C30.9232 37.0847 31.6109 37.7724 32.2897 38.4512C32.4147 38.5762 32.5755 38.6745 32.7273 38.737C32.8523 38.7816 32.9774 38.7995 33.0935 38.7995C33.3793 38.7995 33.6383 38.6745 33.8884 38.4333C35.1387 37.183 36.3891 35.9236 37.6395 34.6733L40.0509 32.2618C40.0956 32.2172 40.1491 32.1547 40.2027 32.0922C40.4082 31.8153 40.4707 31.458 40.3635 31.1186Z" fill="#F78F1E"/>
</g>
<defs>
<clipPath id="clip0_484_835">
<rect width="31.2682" height="30" fill="white" transform="translate(19 22)"/>
</clipPath>
</defs>
</svg>
