<svg width="19" height="19" viewBox="0 0 19 19" fill="none" xmlns="http://www.w3.org/2000/svg">
<path d="M11.5551 18C11.0954 18 10.6311 17.9954 10.1851 17.9954C9.94386 17.9954 9.70718 17.9909 9.4705 17.9909C9.09272 17.9909 8.85149 17.736 8.85149 17.3491C8.85149 16.9622 9.09728 16.7119 9.47505 16.7119C9.95752 16.7074 10.4764 16.7074 11.1 16.7074C11.5232 16.7074 11.9465 16.7074 12.3653 16.7074H12.9297C13.271 16.7074 13.5441 16.5981 13.7535 16.3751L13.9447 16.1748L13.708 16.0292C13.6807 16.011 13.6488 15.9928 13.6215 15.9746C13.5623 15.9382 13.5077 15.9063 13.4577 15.8699C12.7294 15.3783 12.3562 14.7047 12.3516 13.8718C12.3425 12.5973 12.3471 11.3274 12.3516 10.3671C12.3607 9.02892 13.2983 8.05033 14.6411 7.98661C14.6638 7.98661 14.682 7.98206 14.7139 7.98206L14.7594 7.97751L14.9733 7.9593L14.9642 7.74538C14.8959 5.71084 14.0767 4.18153 12.5382 3.19839C11.5733 2.58394 10.5811 2.26988 9.57974 2.26988C8.55564 2.26988 7.52244 2.59759 6.50745 3.24846C4.92351 4.25435 4.09513 5.76091 4.02686 7.71352L4.02231 7.90924L4.21803 7.94565C4.30906 7.96386 4.39554 7.97751 4.48201 7.98661C4.65952 8.01392 4.81883 8.03668 4.97358 8.0822C5.94761 8.35529 6.63489 9.24284 6.64855 10.2396C6.6622 11.2956 6.6622 12.4562 6.6531 13.8991C6.644 15.1963 5.66086 16.2067 4.36368 16.2431C4.22713 16.2477 4.04507 16.2522 3.86756 16.2522C3.44882 16.2522 3.11655 16.2249 2.81615 16.1703C1.89219 16.0019 1.1776 15.2281 1.03195 14.245C1.0274 14.1995 1.01374 14.1585 1.00464 14.1312V10.1304C1.01829 10.1031 1.02284 10.0803 1.0274 10.053C1.16849 9.1427 1.65096 8.5328 2.5021 8.18233C2.72512 8.0913 2.73878 7.90924 2.74788 7.82276V7.81365C2.76153 7.67256 2.77064 7.53146 2.77974 7.39491C2.8025 7.06265 2.82525 6.72128 2.89353 6.40268C3.17117 5.08728 3.83114 3.89023 4.80517 2.94351C5.7792 2.00134 6.98991 1.37323 8.30986 1.13199C8.50102 1.09558 8.69674 1.06827 8.88335 1.04096C8.96983 1.02731 9.05631 1.01365 9.13824 1H10.0531C10.1623 1.01821 10.2761 1.03641 10.3808 1.05462C10.6311 1.09558 10.8678 1.13199 11.0908 1.20027C12.4973 1.60991 13.6306 2.27443 14.4635 3.17564C15.3101 4.0905 15.8745 5.2739 16.1385 6.70308C16.1795 6.9261 16.1977 7.14913 16.2113 7.39036V7.39491C16.2204 7.54056 16.2341 7.69076 16.2477 7.83641C16.2614 7.95475 16.3524 8.11406 16.4935 8.17323C17.4357 8.57376 17.9819 9.38394 17.9864 10.3944C17.991 11.5596 17.991 12.7248 17.9864 13.849C17.9819 15.2236 16.9805 16.2295 15.6105 16.2477C15.3374 16.2522 15.2236 16.4024 15.1554 16.5481C14.6911 17.4948 14.0175 17.9636 13.089 17.9863C12.6293 17.9954 12.1423 18 11.5551 18ZM3.90852 9.27015C3.80384 9.27015 3.69915 9.27015 3.58991 9.27015H3.43971C2.70691 9.2747 2.28362 9.69344 2.28362 10.4217C2.28362 11.5869 2.28362 12.7293 2.28362 13.808C2.28362 14.5272 2.70236 14.9459 3.42606 14.9596C3.5626 14.9596 3.7037 14.9641 3.8448 14.9641C3.98135 14.9641 4.10879 14.9641 4.23623 14.9596C4.93717 14.9459 5.36046 14.5181 5.36046 13.8126C5.36046 13.412 5.36046 13.007 5.36046 12.6064V12.1103C5.36046 11.9328 5.36046 11.7598 5.36046 11.5823C5.36046 11.1863 5.36046 10.7767 5.36046 10.3716C5.35591 9.7071 4.92351 9.2747 4.26354 9.2656C4.1452 9.27015 4.02686 9.27015 3.90852 9.27015ZM15.1554 9.27015C15.0234 9.27015 14.8914 9.27015 14.7594 9.27015C14.0539 9.2747 13.6306 9.70254 13.6261 10.408C13.6261 10.845 13.6261 11.2819 13.6261 11.7189V12.1103C13.6261 12.2878 13.6261 12.4653 13.6261 12.6428C13.6261 13.0479 13.6261 13.4667 13.6261 13.8809C13.6306 14.4862 14.0175 14.905 14.6046 14.9414C14.7685 14.9505 14.9369 14.9596 15.1099 14.9596C15.3283 14.9596 15.5559 14.9505 15.788 14.9323C16.2341 14.9004 16.5846 14.5727 16.6619 14.113C16.6938 13.9218 16.6938 13.7352 16.6938 13.5531V13.5486C16.6983 12.2787 16.6983 11.3092 16.6938 10.3989C16.6938 9.69344 16.266 9.2656 15.5559 9.2656C15.4285 9.27015 15.2919 9.27015 15.1554 9.27015Z" fill="white" stroke="white" stroke-width="0.3"/>
</svg>
