<svg width="18" height="18" viewBox="0 0 18 18" fill="none" xmlns="http://www.w3.org/2000/svg">
<path d="M15.9107 1H2.78929C2.31474 1 1.85963 1.18851 1.52407 1.52407C1.18851 1.85963 1 2.31474 1 2.78929V15.9107C1 16.3853 1.18851 16.8404 1.52407 17.1759C1.85963 17.5115 2.31474 17.7 2.78929 17.7H15.9107C16.3853 17.7 16.8404 17.5115 17.1759 17.1759C17.5115 16.8404 17.7 16.3853 17.7 15.9107V2.78929C17.7 2.31474 17.5115 1.85963 17.1759 1.52407C16.8404 1.18851 16.3853 1 15.9107 1ZM16.5071 15.9107C16.5071 16.0689 16.4443 16.2206 16.3325 16.3325C16.2206 16.4443 16.0689 16.5071 15.9107 16.5071H15.3143V9.35C15.3143 9.19182 15.2514 9.04011 15.1396 8.92826C15.0277 8.81641 14.876 8.75357 14.7179 8.75357C14.5597 8.75357 14.408 8.81641 14.2961 8.92826C14.1843 9.04011 14.1214 9.19182 14.1214 9.35V16.5071H11.7357V11.1393C11.7357 10.9811 11.6729 10.8294 11.561 10.7175C11.4492 10.6057 11.2975 10.5429 11.1393 10.5429C10.9811 10.5429 10.8294 10.6057 10.7175 10.7175C10.6057 10.8294 10.5429 10.9811 10.5429 11.1393V16.5071H8.15714V10.5429C8.15714 10.3847 8.09431 10.233 7.98245 10.1211C7.8706 10.0093 7.7189 9.94643 7.56071 9.94643C7.40253 9.94643 7.25083 10.0093 7.13898 10.1211C7.02712 10.233 6.96429 10.3847 6.96429 10.5429V16.5071H4.57857V13.525C4.57857 13.3668 4.51573 13.2151 4.40388 13.1033C4.29203 12.9914 4.14033 12.9286 3.98214 12.9286C3.82396 12.9286 3.67226 12.9914 3.5604 13.1033C3.44855 13.2151 3.38571 13.3668 3.38571 13.525V16.5071H2.78929C2.6311 16.5071 2.4794 16.4443 2.36755 16.3325C2.2557 16.2206 2.19286 16.0689 2.19286 15.9107V2.78929C2.19286 2.6311 2.2557 2.4794 2.36755 2.36755C2.4794 2.2557 2.6311 2.19286 2.78929 2.19286H15.9107C16.0689 2.19286 16.2206 2.2557 16.3325 2.36755C16.4443 2.4794 16.5071 2.6311 16.5071 2.78929V15.9107Z" fill="white" stroke="white" stroke-width="0.3"/>
<path d="M12.3245 3.98217C12.3245 4.14035 12.3873 4.29206 12.4992 4.40391C12.611 4.51576 12.7627 4.5786 12.9209 4.5786H13.1058L10.574 6.74841L9.17535 5.34978C9.07385 5.24827 8.93913 5.18678 8.79594 5.17659C8.65274 5.1664 8.51068 5.2082 8.39582 5.29431L3.61724 8.87288C3.55458 8.91988 3.50179 8.97876 3.46188 9.04615C3.42198 9.11355 3.39574 9.18814 3.38466 9.26568C3.36229 9.42227 3.40304 9.58134 3.49795 9.70789C3.59286 9.83443 3.73415 9.91809 3.89075 9.94046C4.04734 9.96283 4.2064 9.92208 4.33295 9.82717L8.69821 6.55815L10.1219 7.98182C10.2282 8.08808 10.3706 8.1503 10.5208 8.15605C10.6709 8.1618 10.8178 8.11065 10.9318 8.01284L14.1215 5.27881V5.7637C14.1215 5.92189 14.1844 6.07359 14.2962 6.18544C14.4081 6.29729 14.5598 6.36013 14.718 6.36013C14.8761 6.36013 15.0279 6.29729 15.1397 6.18544C15.2516 6.07359 15.3144 5.92189 15.3144 5.7637V3.38574H12.9209C12.7627 3.38574 12.611 3.44858 12.4992 3.56043C12.3873 3.67228 12.3245 3.82399 12.3245 3.98217Z" fill="white" stroke="white" stroke-width="0.3"/>
</svg>
