<svg width="19" height="20" viewBox="0 0 19 20" fill="none" xmlns="http://www.w3.org/2000/svg">
<path d="M3.05009 18.9999C3.03586 18.9904 3.01687 18.9809 2.99315 18.9761C1.70709 18.7151 1 17.8467 1 16.5417C1 12.8259 1 8.83008 1 4.80108C1 4.63023 1.00475 4.44516 1.03796 4.26957C1.25152 3.12588 2.18165 2.35235 3.35381 2.34761C3.46296 2.34761 3.57685 2.34761 3.686 2.34761H4.36936C4.36936 2.34761 4.36936 2.11507 4.36936 2.04864C4.36936 1.90627 4.36936 1.77339 4.36936 1.63577C4.36936 1.26087 4.61139 0.999863 4.94833 0.999863C5.29001 0.999863 5.52254 1.26087 5.52254 1.64526C5.52254 1.78288 5.52254 1.92051 5.52254 2.05338V2.33337H13.8036V2.04864C13.8036 2.00118 13.8036 1.95373 13.8036 1.90627C13.8036 1.80187 13.8036 1.69272 13.8036 1.58832C13.8083 1.25612 14.0456 1.00461 14.3588 0.995117C14.3636 0.995117 14.3683 0.995117 14.3778 0.995117C14.6958 0.995117 14.9425 1.23714 14.9568 1.56459C14.9663 1.7117 14.9615 1.86356 14.9615 2.02016C14.9615 2.09609 14.9615 2.16728 14.9615 2.24321V2.33812H15.6733C15.7967 2.33812 15.9249 2.33812 16.0482 2.33812C16.4469 2.34286 16.8123 2.43777 17.135 2.63234C17.9275 3.09741 18.3261 3.80925 18.3261 4.73938C18.3261 6.50949 18.3261 8.27959 18.3261 10.0497V12.0381C18.3261 12.4889 18.3261 12.935 18.3261 13.3858C18.3261 14.4394 18.3261 15.5308 18.3261 16.6033C18.3214 17.7186 17.6523 18.6202 16.6225 18.9097C16.5465 18.9287 16.4706 18.9477 16.3947 18.9666C16.3615 18.9761 16.3282 18.9809 16.295 18.9904H3.05009V18.9999ZM2.16741 7.98062C2.16741 7.9996 2.16267 8.01858 2.16267 8.03282C2.15792 8.06604 2.15792 8.104 2.15792 8.13722V9.99749C2.15792 12.171 2.15792 14.4156 2.15792 16.6271C2.15792 17.3531 2.65146 17.8419 3.38703 17.8419C5.029 17.8419 6.67572 17.8419 8.31769 17.8419C10.8613 17.8419 13.4002 17.8419 15.9438 17.8419C16.0388 17.8419 16.1337 17.8419 16.2286 17.823C16.8218 17.7043 17.1777 17.2393 17.1777 16.5796C17.1777 14.5153 17.1777 12.451 17.1777 10.3866V7.8952H2.17216L2.16741 7.98062ZM3.42025 3.50553C2.64672 3.50553 2.16267 3.98483 2.15792 4.75362C2.15792 5.14276 2.15792 5.53664 2.15792 5.92578V6.71355H17.1635V6.61863C17.1635 6.40983 17.1635 6.20102 17.1682 5.99222C17.173 5.51766 17.1777 5.02412 17.1587 4.54481C17.135 4.03229 16.7553 3.60993 16.2476 3.53875C16.1099 3.51977 15.9676 3.51028 15.7872 3.51028C15.6686 3.51028 15.5452 3.51502 15.4266 3.51977C15.3079 3.52451 15.1798 3.52926 15.0612 3.52926H14.9663V3.62417C14.9663 3.69061 14.9663 3.7523 14.9663 3.81874C14.9663 3.95636 14.9663 4.10347 14.9663 4.2411C14.9568 4.59227 14.7147 4.84853 14.3873 4.85328H14.3825C14.0551 4.85328 13.8131 4.59227 13.8083 4.23161C13.8083 4.08924 13.8083 3.95162 13.8083 3.80925V3.51977H5.52729V3.79976C5.52729 3.84721 5.52729 3.89467 5.52729 3.94212C5.52729 4.04653 5.52729 4.15093 5.52729 4.25533C5.52254 4.59227 5.27577 4.84853 4.95307 4.84853C4.63512 4.84853 4.38835 4.60176 4.37411 4.27432C4.36936 4.1272 4.36936 3.97534 4.36936 3.81874C4.36936 3.74756 4.36936 3.67163 4.36936 3.5957V3.50079H3.74295L3.42025 3.50553Z" fill="#1D8BFA" stroke="#1D8BFA" stroke-width="0.2"/>
</svg>
