<svg width="16" height="16" viewBox="0 0 16 16" fill="none" xmlns="http://www.w3.org/2000/svg">
<g clip-path="url(#clip0_412_4462)">
<path d="M15.9922 7.53291C15.9922 7.84595 15.9922 8.15898 15.9922 8.47202C15.9805 8.58549 15.9648 8.69506 15.9531 8.80853C15.7613 10.5302 15.104 12.0484 13.9457 13.3358C12.7132 14.7014 11.1871 15.5544 9.37151 15.8792C9.07022 15.934 8.76501 15.9614 8.46371 16.0044C8.15068 16.0044 7.83764 16.0044 7.52461 16.0044C7.25853 15.9692 6.98853 15.9457 6.72245 15.9027C5.05163 15.6249 3.59602 14.9049 2.39866 13.7075C0.598708 11.9076 -0.191706 9.72416 0.0391576 7.1964C0.191762 5.49819 0.856962 3.99953 1.99171 2.72391C3.49819 1.03353 5.39597 0.121811 7.65765 0.00833617C9.23456 -0.0699226 10.7176 0.297894 12.0675 1.12352C14.1453 2.39131 15.417 4.22257 15.867 6.6212C15.9218 6.9225 15.9492 7.22771 15.9922 7.53291ZM7.99416 1.24091C4.26904 1.237 1.24434 4.2617 1.23652 7.99073C1.22869 11.7119 4.24948 14.7405 7.98242 14.7523C11.7075 14.764 14.7518 11.7237 14.7479 7.99464C14.7479 4.26953 11.7232 1.24482 7.99416 1.24091Z" fill="#1D8BFA"/>
<path d="M8.6164 5.98793C8.6164 6.52791 8.62031 7.07181 8.61249 7.6118C8.61249 7.70571 8.63988 7.76049 8.71813 7.81918C9.41464 8.3396 10.1111 8.86003 10.8037 9.38436C11.062 9.58001 11.1481 9.84217 11.0542 10.1083C10.925 10.4761 10.4985 10.6365 10.1581 10.4369C10.0759 10.39 10.0055 10.3313 9.92723 10.2765C9.17595 9.71305 8.42858 9.14958 7.67729 8.59003C7.46599 8.43352 7.36426 8.23787 7.36426 7.97961C7.36426 6.78226 7.36426 5.5849 7.36426 4.38754C7.36426 3.90233 7.77903 3.59321 8.20163 3.75364C8.45205 3.84755 8.60466 4.0745 8.60466 4.37971C8.6164 4.91578 8.6164 5.45186 8.6164 5.98793Z" fill="#1D8BFA"/>
</g>
<defs>
<clipPath id="clip0_412_4462">
<rect width="15.9922" height="16" fill="white"/>
</clipPath>
</defs>
</svg>
