<svg width="42" height="52" viewBox="0 0 42 52" fill="none" xmlns="http://www.w3.org/2000/svg">
<path d="M39.3926 16.368C39.2462 15.5044 38.5437 14.9043 37.6947 14.9043C37.563 14.9043 37.4459 14.9189 37.3142 14.9482C36.4359 15.1239 35.9236 15.8264 35.9236 16.8657C35.9236 22.4716 35.9236 28.063 35.9236 33.6689V42.3487C35.9236 45.4664 33.7427 47.6326 30.6251 47.6326H11.9922C8.87447 47.6326 6.69356 45.4517 6.69356 42.3487V17.0852V16.9388C6.69356 16.7925 6.69356 16.6607 6.69356 16.529C6.62037 15.6069 5.85925 14.9043 4.96639 14.9043C4.86393 14.9043 4.76147 14.9189 4.67365 14.9336C3.72224 15.0946 3.19531 15.7972 3.19531 16.8803C3.19531 19.9687 3.19531 23.0571 3.19531 26.1455V29.8194V33.6543C3.19531 36.5963 3.19531 39.5384 3.19531 42.4658C3.19531 47.3253 7.03021 51.1455 11.9043 51.1455C14.4512 51.1455 17.0126 51.1455 19.5595 51.1455C23.2919 51.1455 27.0244 51.1455 30.7422 51.1309C31.313 51.1309 31.8253 51.087 32.279 51.0138C36.5677 50.238 39.4512 46.7691 39.4512 42.4072C39.4512 33.947 39.4512 25.5015 39.4512 17.0413C39.4365 16.851 39.4219 16.6022 39.3926 16.368Z" fill="#F78F1E" stroke="#F78F1E" stroke-width="0.1"/>
<path d="M41.4419 8.61113C41.0906 8.14274 40.5198 7.87928 39.8758 7.86464C38.9683 7.86464 37.9876 7.85 36.802 7.85C36.1141 7.85 35.4261 7.85 34.7235 7.85H34.5772C33.8453 7.85 33.0988 7.85 32.367 7.85H30.069V7.26452C30.069 6.7815 30.069 6.29848 30.069 5.8301C30.069 4.7616 30.069 3.75164 30.069 2.71241C30.0543 1.54145 29.3664 0.853516 28.2101 0.853516C23.5994 0.853516 19.0034 0.853516 14.4074 0.868153C13.2511 0.868153 12.5631 1.57073 12.5485 2.74169C12.5338 3.64918 12.5485 4.57131 12.5485 5.46417C12.5485 5.87401 12.5485 6.26921 12.5485 6.67904V7.87928C11.6703 7.87928 7.04497 7.87928 6.31312 7.87928C5.14216 7.87928 3.95656 7.87928 2.7856 7.87928C1.65855 7.87928 0.868153 8.59649 0.853516 9.62108C0.853516 10.1041 1.01452 10.5286 1.3219 10.836C1.67319 11.1872 2.20012 11.3922 2.80024 11.3922C8.97705 11.3922 15.1392 11.3922 21.316 11.3922H39.9343C40.0221 11.3922 40.0953 11.3922 40.1539 11.3922C40.8564 11.3336 41.4712 10.836 41.6761 10.148C41.8518 9.59181 41.7639 9.05024 41.4419 8.61113ZM26.5268 4.41031V7.83537H16.0614V4.41031H26.5268Z" fill="#F78F1E" stroke="#F78F1E" stroke-width="0.1"/>
<path d="M14.8757 37.5055C14.8757 38.6326 15.5929 39.4376 16.6029 39.4376H16.6175C17.6567 39.4376 18.374 38.6326 18.374 37.4909C18.3886 31.3141 18.374 26.235 18.374 21.5073C18.374 21.1853 18.3008 20.8486 18.1837 20.5705C17.9348 19.9704 17.3055 19.5605 16.6175 19.5605C16.5151 19.5605 16.4126 19.5752 16.3101 19.5898C15.4466 19.7508 14.8757 20.4388 14.8611 21.2877C14.8464 23.1759 14.8464 25.0787 14.8611 26.9376V27.3474C14.8611 28.0646 14.8611 28.7819 14.8611 29.4991V31.4312C14.8757 33.4657 14.8757 35.4856 14.8757 37.5055Z" fill="#F78F1E" stroke="#F78F1E" stroke-width="0.1"/>
<path d="M27.7271 21.477C27.7271 20.3793 27.0245 19.5889 26.0146 19.5742H25.9853C24.9753 19.5742 24.2289 20.3646 24.2289 21.4478C24.2142 27.7856 24.2142 32.9085 24.2435 37.5485C24.2435 37.8997 24.3459 38.2949 24.5216 38.6316C24.7997 39.1439 25.3413 39.4513 25.956 39.4513C26.117 39.4513 26.278 39.4366 26.439 39.3927C27.2294 39.1732 27.7271 38.5145 27.7417 37.6948C27.7564 35.792 27.7417 33.8746 27.7417 32.001V31.9718C27.7417 31.1667 27.7417 30.3471 27.7417 29.542V27.3757C27.7417 25.3997 27.7417 23.4384 27.7271 21.477Z" fill="#F78F1E" stroke="#F78F1E" stroke-width="0.1"/>
</svg>
