<svg width="15" height="18" viewBox="0 0 15 18" fill="none" xmlns="http://www.w3.org/2000/svg">
<path d="M13.2857 5.9176C13.2389 5.64126 13.0141 5.44922 12.7424 5.44922C12.7002 5.44922 12.6628 5.4539 12.6206 5.46327C12.3396 5.51948 12.1756 5.7443 12.1756 6.07685C12.1756 7.87076 12.1756 9.65999 12.1756 11.4539V14.2314C12.1756 15.2291 11.4778 15.9223 10.4801 15.9223H4.51756C3.51991 15.9223 2.82201 15.2244 2.82201 14.2314V6.14711V6.10027C2.82201 6.05343 2.82201 6.01128 2.82201 5.96912C2.79859 5.67404 2.55503 5.44922 2.26932 5.44922C2.23653 5.44922 2.20375 5.4539 2.17564 5.45859C1.87119 5.51011 1.70258 5.73493 1.70258 6.08154C1.70258 7.06983 1.70258 8.05812 1.70258 9.04641V10.2221V11.4492C1.70258 12.3907 1.70258 13.3321 1.70258 14.2689C1.70258 15.8239 2.92974 17.0464 4.48946 17.0464C5.30445 17.0464 6.12412 17.0464 6.93911 17.0464C8.13349 17.0464 9.32787 17.0464 10.5176 17.0417C10.7002 17.0417 10.8642 17.0277 11.0094 17.0043C12.3817 16.756 13.3045 15.6459 13.3045 14.2502C13.3045 11.5429 13.3045 8.84032 13.3045 6.13306C13.2998 6.07217 13.2951 5.99254 13.2857 5.9176Z" fill="#FF2E35" stroke="#FF2E35" stroke-width="0.1"/>
<path d="M13.9415 3.43556C13.8291 3.28568 13.6464 3.20137 13.4403 3.19668C13.1499 3.19668 12.8361 3.192 12.4567 3.192C12.2366 3.192 12.0164 3.192 11.7916 3.192H11.7448C11.5106 3.192 11.2717 3.192 11.0375 3.192H10.3021V3.00465C10.3021 2.85008 10.3021 2.69551 10.3021 2.54563C10.3021 2.20371 10.3021 1.88053 10.3021 1.54797C10.2974 1.17327 10.0773 0.953125 9.70728 0.953125C8.23187 0.953125 6.76115 0.953125 5.29042 0.957809C4.9204 0.957809 4.70026 1.18263 4.69557 1.55734C4.69089 1.84774 4.69557 2.14282 4.69557 2.42853C4.69557 2.55968 4.69557 2.68615 4.69557 2.81729V3.20137C4.41454 3.20137 2.93445 3.20137 2.70026 3.20137C2.32555 3.20137 1.94616 3.20137 1.57145 3.20137C1.2108 3.20137 0.95787 3.43088 0.953186 3.75875C0.953186 3.91331 1.00471 4.04914 1.10307 4.1475C1.21548 4.25992 1.3841 4.32549 1.57614 4.32549C3.55272 4.32549 5.52461 4.32549 7.5012 4.32549H13.459C13.4871 4.32549 13.5106 4.32549 13.5293 4.32549C13.7541 4.30676 13.9508 4.1475 14.0164 3.92736C14.0726 3.74938 14.0445 3.57608 13.9415 3.43556ZM9.16864 2.0913V3.18732H5.8197V2.0913H9.16864Z" fill="#FF2E35" stroke="#FF2E35" stroke-width="0.1"/>
<path d="M5.44033 12.6818C5.44033 13.0425 5.66983 13.3001 5.99302 13.3001H5.9977C6.33026 13.3001 6.55976 13.0425 6.55976 12.6772C6.56445 10.7006 6.55976 9.07528 6.55976 7.5624C6.55976 7.45936 6.53634 7.35163 6.49887 7.26264C6.41925 7.0706 6.21784 6.93945 5.9977 6.93945C5.96492 6.93945 5.93213 6.94414 5.89934 6.94882C5.623 7.00034 5.44033 7.22048 5.43564 7.49215C5.43096 8.09636 5.43096 8.70526 5.43564 9.30011V9.43126C5.43564 9.66076 5.43564 9.89027 5.43564 10.1198V10.738C5.44033 11.3891 5.44033 12.0355 5.44033 12.6818Z" fill="#FF2E35" stroke="#FF2E35" stroke-width="0.1"/>
<path d="M9.55269 7.55226C9.55269 7.20097 9.32787 6.94804 9.00468 6.94336H8.99531C8.67213 6.94336 8.43325 7.19629 8.43325 7.54289C8.42857 9.57099 8.42857 11.2103 8.43794 12.6951C8.43794 12.8075 8.47072 12.934 8.52693 13.0417C8.61592 13.2057 8.78922 13.304 8.98595 13.304C9.03747 13.304 9.08899 13.2993 9.14051 13.2853C9.39344 13.215 9.55269 13.0042 9.55737 12.742C9.56206 12.1331 9.55737 11.5195 9.55737 10.9199V10.9106C9.55737 10.653 9.55737 10.3907 9.55737 10.1331V9.43985C9.55737 8.80753 9.55737 8.17989 9.55269 7.55226Z" fill="#FF2E35" stroke="#FF2E35" stroke-width="0.1"/>
</svg>
