<svg width="36" height="36" viewBox="0 0 36 36" fill="none" xmlns="http://www.w3.org/2000/svg">
<rect opacity="0.1" width="36" height="36" rx="6" fill="#FF2E35"/>
<path d="M24.2857 14.9176C24.2389 14.6413 24.0141 14.4492 23.7424 14.4492C23.7002 14.4492 23.6628 14.4539 23.6206 14.4633C23.3396 14.5195 23.1756 14.7443 23.1756 15.0769C23.1756 16.8708 23.1756 18.66 23.1756 20.4539V23.2314C23.1756 24.2291 22.4778 24.9223 21.4801 24.9223H15.5176C14.5199 24.9223 13.822 24.2244 13.822 23.2314V15.1471V15.1003C13.822 15.0534 13.822 15.0113 13.822 14.9691C13.7986 14.674 13.555 14.4492 13.2693 14.4492C13.2365 14.4492 13.2037 14.4539 13.1756 14.4586C12.8712 14.5101 12.7026 14.7349 12.7026 15.0815C12.7026 16.0698 12.7026 17.0581 12.7026 18.0464V19.2221V20.4492C12.7026 21.3907 12.7026 22.3321 12.7026 23.2689C12.7026 24.8239 13.9297 26.0464 15.4895 26.0464C16.3044 26.0464 17.1241 26.0464 17.9391 26.0464C19.1335 26.0464 20.3279 26.0464 21.5176 26.0417C21.7002 26.0417 21.8642 26.0277 22.0094 26.0043C23.3817 25.756 24.3045 24.6459 24.3045 23.2502C24.3045 20.5429 24.3045 17.8403 24.3045 15.1331C24.2998 15.0722 24.2951 14.9925 24.2857 14.9176Z" fill="#FF2E35" stroke="#FF2E35" stroke-width="0.1"/>
<path d="M24.9415 12.4356C24.8291 12.2857 24.6464 12.2014 24.4403 12.1967C24.1499 12.1967 23.8361 12.192 23.4567 12.192C23.2366 12.192 23.0164 12.192 22.7916 12.192H22.7448C22.5106 12.192 22.2717 12.192 22.0375 12.192H21.3021V12.0046C21.3021 11.8501 21.3021 11.6955 21.3021 11.5456C21.3021 11.2037 21.3021 10.8805 21.3021 10.548C21.2974 10.1733 21.0773 9.95312 20.7073 9.95312C19.2319 9.95312 17.7611 9.95313 16.2904 9.95781C15.9204 9.95781 15.7003 10.1826 15.6956 10.5573C15.6909 10.8477 15.6956 11.1428 15.6956 11.4285C15.6956 11.5597 15.6956 11.6861 15.6956 11.8173V12.2014C15.4145 12.2014 13.9345 12.2014 13.7003 12.2014C13.3256 12.2014 12.9462 12.2014 12.5715 12.2014C12.2108 12.2014 11.9579 12.4309 11.9532 12.7587C11.9532 12.9133 12.0047 13.0491 12.1031 13.1475C12.2155 13.2599 12.3841 13.3255 12.5761 13.3255C14.5527 13.3255 16.5246 13.3255 18.5012 13.3255H24.459C24.4871 13.3255 24.5106 13.3255 24.5293 13.3255C24.7541 13.3068 24.9508 13.1475 25.0164 12.9274C25.0726 12.7494 25.0445 12.5761 24.9415 12.4356ZM20.1686 11.0913V12.1873H16.8197V11.0913H20.1686Z" fill="#FF2E35" stroke="#FF2E35" stroke-width="0.1"/>
<path d="M16.4403 21.6818C16.4403 22.0425 16.6698 22.3001 16.993 22.3001H16.9977C17.3303 22.3001 17.5598 22.0425 17.5598 21.6772C17.5644 19.7006 17.5598 18.0753 17.5598 16.5624C17.5598 16.4594 17.5363 16.3516 17.4989 16.2626C17.4192 16.0706 17.2178 15.9395 16.9977 15.9395C16.9649 15.9395 16.9321 15.9441 16.8993 15.9488C16.623 16.0003 16.4403 16.2205 16.4356 16.4921C16.431 17.0964 16.431 17.7053 16.4356 18.3001V18.4313C16.4356 18.6608 16.4356 18.8903 16.4356 19.1198V19.738C16.4403 20.3891 16.4403 21.0355 16.4403 21.6818Z" fill="#FF2E35" stroke="#FF2E35" stroke-width="0.1"/>
<path d="M20.5527 16.5523C20.5527 16.201 20.3279 15.948 20.0047 15.9434H19.9953C19.6721 15.9434 19.4333 16.1963 19.4333 16.5429C19.4286 18.571 19.4286 20.2103 19.4379 21.6951C19.4379 21.8075 19.4707 21.934 19.5269 22.0417C19.6159 22.2057 19.7892 22.304 19.9859 22.304C20.0375 22.304 20.089 22.2993 20.1405 22.2853C20.3934 22.215 20.5527 22.0042 20.5574 21.742C20.5621 21.1331 20.5574 20.5195 20.5574 19.9199V19.9106C20.5574 19.653 20.5574 19.3907 20.5574 19.1331V18.4398C20.5574 17.8075 20.5574 17.1799 20.5527 16.5523Z" fill="#FF2E35" stroke="#FF2E35" stroke-width="0.1"/>
</svg>
