<svg width="18" height="22" viewBox="0 0 18 22" fill="none" xmlns="http://www.w3.org/2000/svg">
<path d="M1.54043 19.9999C1.2512 19.8939 1.09694 19.7492 1.03909 19.5179C0.981244 19.3009 1.01499 19.0937 1.1355 18.9442C1.2512 18.7948 1.42956 18.7128 1.64648 18.7128C2.23459 18.7128 2.8227 18.708 3.41563 18.708C3.79646 18.708 4.17728 18.708 4.5581 18.708C4.93893 18.708 5.31975 18.708 5.70058 18.708H10.4729C12.0685 18.708 13.6593 18.708 15.2549 18.708C15.4767 18.708 15.6695 18.79 15.8045 18.9394C15.925 19.0744 15.978 19.2576 15.9539 19.4456C15.925 19.6818 15.7948 19.836 15.5394 19.9421C15.5008 19.9565 15.4574 19.9758 15.414 19.9903C15.4044 19.9951 15.3996 19.9951 15.3899 19.9999H1.54043Z" fill="#1D8BFA"/>
<path d="M2.61534 17.0739C1.87297 17.0739 1.22701 16.5678 1.04865 15.8447C0.957061 15.4783 1.01973 15.1071 1.09686 14.76C1.23183 14.1382 1.36199 13.5067 1.49214 12.8945C1.56445 12.557 1.63194 12.2196 1.70425 11.887C1.7862 11.4917 1.95974 11.1687 2.23451 10.8939L2.99616 10.1323C5.40162 7.72201 7.80709 5.31173 10.2126 2.90145C10.8007 2.31334 11.5141 2.01928 12.3914 2C13.317 2.01928 14.0497 2.33744 14.6427 2.97375C14.7632 3.10391 14.8885 3.23407 15.0042 3.3594C15.0861 3.44617 15.1681 3.53294 15.25 3.61971C16.3684 4.80557 16.3443 6.70487 15.2018 7.85217C13.5532 9.50562 11.8756 11.1832 10.2511 12.8077C9.22916 13.8249 8.21202 14.8468 7.19005 15.8688C6.90082 16.158 6.53446 16.3315 6.00902 16.4376C5.09793 16.616 4.02294 16.8232 2.94796 17.0498C2.83708 17.0643 2.72621 17.0739 2.61534 17.0739ZM12.324 3.37386C11.8708 3.37386 11.4466 3.55222 11.1236 3.87038C8.80013 6.19389 6.26933 8.72951 3.1697 11.8388C3.05883 11.9497 3.01544 12.0943 2.99616 12.1762C2.93831 12.4365 2.88529 12.7017 2.83708 12.9572L2.7937 13.1693C2.69247 13.6899 2.59123 14.2153 2.48518 14.7408L2.302 15.7193H2.59123C2.6057 15.7193 2.62016 15.7193 2.6298 15.7193C2.64426 15.7193 2.6539 15.7193 2.66354 15.7193C2.68764 15.7193 2.70693 15.7193 2.73103 15.7145L3.02991 15.6663C3.99402 15.5072 4.98706 15.3385 5.96563 15.1698C6.10061 15.1457 6.20666 15.0589 6.25969 15.0059L6.81405 14.4515C9.24844 12.0123 11.76 9.48634 14.2329 6.99893C14.9367 6.29031 14.9463 5.31655 14.2474 4.58382C14.0497 4.37654 13.8424 4.16926 13.64 3.97161L13.5387 3.87038C13.2109 3.55222 12.7771 3.37386 12.324 3.37386Z" fill="#1D8BFA"/>
</svg>
