<svg width="17" height="14" viewBox="0 0 17 14" fill="none" xmlns="http://www.w3.org/2000/svg">
<path d="M16.8099 4.26313C16.8099 6.81726 16.8099 9.36704 16.8099 11.9212C16.8056 11.9299 16.7926 11.9385 16.7926 11.9472C16.571 12.829 16.0367 13.2503 15.1246 13.2503C12.8832 13.2503 10.6418 13.2503 8.40043 13.2503C6.18512 13.2503 3.96981 13.2503 1.7545 13.2503C1.31143 13.2503 0.92484 13.12 0.599059 12.8116C0.342777 12.5684 0.212465 12.2556 0.134277 11.9168C0.134277 9.3627 0.134277 6.81291 0.134277 4.25879C0.16034 4.26748 0.186402 4.27616 0.208121 4.2892C2.46253 5.79213 4.71259 7.29507 6.967 8.79366C7.97475 9.46694 8.97815 9.46694 9.99025 8.79366C12.0057 7.45144 14.0169 6.10923 16.0281 4.76701C16.2843 4.60195 16.545 4.43254 16.8099 4.26313Z" fill="#1D8BFA"/>
<path d="M0.129883 2.5039C0.129883 2.36055 0.129883 2.22155 0.129883 2.07821C0.155945 1.98699 0.182008 1.89143 0.212414 1.80021C0.433945 1.13996 1.01166 0.749023 1.76748 0.749023C6.2372 0.749023 10.7026 0.749023 15.1723 0.749023C15.2201 0.749023 15.2722 0.749023 15.32 0.753367C15.9846 0.788117 16.5275 1.19209 16.7317 1.80455C16.7621 1.89577 16.7838 1.99134 16.8142 2.08255C16.8142 2.2259 16.8142 2.3649 16.8142 2.50824C16.71 2.93827 16.4971 3.29446 16.1192 3.5464C13.8692 5.04065 11.6234 6.54359 9.37338 8.03784C8.77395 8.43746 8.16148 8.42877 7.56204 8.02915C5.31198 6.53055 3.0706 5.03196 0.829227 3.53771C0.473039 3.2988 0.238477 2.98171 0.155945 2.56037C0.151602 2.53865 0.13857 2.52127 0.129883 2.5039Z" fill="#1D8BFA"/>
</svg>
