<svg width="8" height="5" viewBox="0 0 8 5" fill="none" xmlns="http://www.w3.org/2000/svg">
<path d="M0 0.53775C0 0.483885 0.00861788 0.425711 0.0280094 0.367537C0.0904927 0.16716 0.224077 0.0508125 0.433073 0.00987522C0.594667 -0.0202891 0.73687 0.0184936 0.866146 0.128378C0.887691 0.147769 0.911392 0.169315 0.935093 0.193016L3.84379 3.10171C3.85887 3.1168 3.87396 3.12972 3.88904 3.14696L3.91274 3.16851L4.00108 3.25469L4.08942 3.17066C4.09803 3.16204 4.10665 3.15558 4.11312 3.14696C4.13035 3.12972 4.14759 3.11464 4.16267 3.09956L5.21196 2.05027C5.83464 1.42544 6.45947 0.802765 7.08214 0.180088C7.26528 -0.00305233 7.49152 -0.0482988 7.70051 0.0529671C7.84918 0.124069 7.94183 0.238262 7.98707 0.404166C7.99138 0.419248 7.99569 0.432175 8 0.445103V0.602388C7.96768 0.751055 7.87503 0.867403 7.73499 1.0053C6.51764 2.21833 5.31753 3.42275 4.40399 4.3363C4.22515 4.51513 4.04417 4.56468 3.83302 4.49143C3.75761 4.46557 3.68004 4.41602 3.61971 4.35569C2.41961 3.15989 1.20873 1.94685 0.165903 0.901876C0.0560188 0.791992 0 0.66918 0 0.53775Z" fill="#1D8BFA"/>
</svg>
