<svg width="10" height="16" viewBox="0 0 10 16" fill="none" xmlns="http://www.w3.org/2000/svg">
<g clip-path="url(#clip0_215_1591)">
<path d="M3.27656 15.9997C3.27656 15.9351 3.26365 15.8705 3.26365 15.7931C3.26365 13.5073 3.26365 11.2087 3.26365 8.92301C3.26365 8.85844 3.26365 8.79387 3.26365 8.70347C2.43718 8.70347 1.62362 8.70347 0.810059 8.70347C0.810059 7.74787 0.810059 6.81808 0.810059 5.86247C1.62362 5.86247 2.43718 5.86247 3.26365 5.86247C3.26365 5.78499 3.26365 5.72042 3.26365 5.65586C3.26365 4.90687 3.25074 4.17079 3.27656 3.4218C3.3153 2.53076 3.57358 1.70428 4.21926 1.03277C4.69706 0.529142 5.30401 0.232128 5.97551 0.0900784C6.5308 -0.0261444 7.08609 -0.0132307 7.64137 0.0125965C8.09335 0.0255102 8.54533 0.0642511 8.99731 0.102992C9.03605 0.102992 9.06187 0.115906 9.11353 0.128819C9.11353 0.968206 9.11353 1.80759 9.11353 2.65989C9.06187 2.65989 9.01022 2.65989 8.94565 2.65989C8.39037 2.67281 7.83508 2.65989 7.26688 2.68572C6.60828 2.72446 6.23379 3.08604 6.20796 3.74464C6.18213 4.42906 6.19505 5.11348 6.19505 5.81082C6.19505 5.82373 6.20796 5.82373 6.20796 5.86247C7.12483 5.86247 8.05461 5.86247 8.99731 5.86247C8.86817 6.81808 8.75195 7.76078 8.63572 8.70347C7.82217 8.70347 7.02152 8.70347 6.19505 8.70347C6.19505 8.76804 6.18213 8.80678 6.18213 8.85844C6.18213 11.2087 6.18213 13.559 6.18213 15.8964C6.18213 15.9351 6.18213 15.9739 6.19505 15.9997C5.23944 15.9997 4.258 15.9997 3.27656 15.9997Z" fill="#1D8BFA"/>
</g>
<defs>
<clipPath id="clip0_215_1591">
<rect width="8.30347" height="16" fill="white" transform="translate(0.810059)"/>
</clipPath>
</defs>
</svg>
