<svg width="12" height="22" viewBox="0 0 12 22" fill="none" xmlns="http://www.w3.org/2000/svg">
<g clip-path="url(#clip0_303_1814)">
<path d="M3.31181 12.4154C3.11826 12.4154 2.96055 12.4154 2.80285 12.4154C2.07167 12.4154 1.33331 12.4225 0.602132 12.4154C0.164856 12.4082 0.0143185 12.2792 0.0143185 11.8634C-1.84197e-05 10.7308 -1.84197e-05 9.60533 0.00715004 8.47272C0.0143185 8.05694 0.164856 7.92791 0.602132 7.92074C1.39783 7.91358 2.19353 7.92074 2.9964 7.92074C3.08959 7.92074 3.18995 7.92074 3.31898 7.92074C3.31898 7.79171 3.31898 7.68419 3.31898 7.57666C3.34048 6.55874 3.29747 5.53365 3.39066 4.51573C3.60572 1.96376 5.56987 0.114293 8.13618 0.0139342C9.21145 -0.0290766 10.2867 -0.000402739 11.362 -0.000402739C11.7204 -0.000402739 11.8709 0.157303 11.8709 0.508558C11.8781 1.57666 11.8781 2.63759 11.8709 3.70569C11.8709 4.07128 11.7204 4.21465 11.3333 4.22182C10.6093 4.23616 9.88529 4.24332 9.1541 4.25049C8.30822 4.26483 7.97848 4.58024 7.96414 5.42612C7.9498 6.22182 7.96414 7.01752 7.96414 7.84189C8.07883 7.84906 8.17202 7.85623 8.26521 7.85623C9.18995 7.85623 10.1075 7.85623 11.0322 7.85623C11.6344 7.85623 11.7634 7.98526 11.7634 8.57307C11.7634 9.62684 11.7634 10.6878 11.7634 11.7415C11.7634 12.2362 11.6416 12.3652 11.1469 12.3652C10.2007 12.3724 9.24729 12.3652 8.30106 12.3652C8.2007 12.3652 8.10751 12.3652 7.97131 12.3652C7.97131 12.4942 7.97131 12.6089 7.97131 12.7236C7.97131 15.5265 7.97131 18.3293 7.97131 21.1394C7.97131 21.8921 7.88529 21.9781 7.11826 21.9781C6.086 21.9781 5.06091 21.9781 4.02866 21.9781C3.46235 21.9781 3.32615 21.8491 3.32615 21.2828C3.32615 18.444 3.32615 15.6053 3.32615 12.7595C3.31181 12.6806 3.31181 12.5731 3.31181 12.4154Z" fill="#1D8BFA"/>
</g>
<defs>
<clipPath id="clip0_303_1814">
<rect width="11.871" height="22" fill="white"/>
</clipPath>
</defs>
</svg>
