<svg width="70" height="70" viewBox="0 0 70 70" fill="none" xmlns="http://www.w3.org/2000/svg">
<circle opacity="0.1" cx="35" cy="35" r="35" fill="#FF2E35"/>
<g clip-path="url(#clip0_484_846)">
<path d="M50.2682 40.55C50.2236 40.7822 50.1879 41.0055 50.1253 41.2288C49.518 43.4884 48.0801 44.8906 45.7848 45.3907C45.6954 45.4086 45.6061 45.4265 45.4811 45.4622C45.4811 45.5783 45.4811 45.7033 45.4811 45.8194C45.4811 47.4539 45.4811 49.0972 45.4811 50.7316C45.4811 51.4551 45.1149 51.9105 44.4987 51.9909C44.0878 52.0445 43.7752 51.857 43.4984 51.5801C42.1051 50.1779 40.7118 48.7846 39.3096 47.3913C38.7559 46.8376 38.1932 46.2928 37.6484 45.7301C37.4876 45.5604 37.3269 45.4979 37.0947 45.4979C32.9238 45.5069 28.7529 45.5247 24.582 45.4979C22.242 45.4801 20.5362 44.3815 19.5001 42.2738C19.1429 41.5503 19.0089 40.7733 19.0089 39.9695C19.0089 35.8254 19 31.6813 19.0089 27.5462C19.0179 24.715 20.9827 22.4643 23.7603 22.0624C24.0729 22.0177 24.3855 22.0088 24.7071 22.0088C31.334 22.0088 37.9521 22.0088 44.579 22.0088C47.2138 22.0088 49.393 23.5896 50.0539 25.9921C50.1432 26.3047 50.1968 26.6262 50.2682 26.9388C50.2682 31.467 50.2682 36.013 50.2682 40.55ZM43.159 48.2755C43.2036 48.2398 43.2483 48.2041 43.2929 48.1773C43.2929 48.0791 43.2929 47.9808 43.2929 47.8826C43.2929 46.7304 43.284 45.5783 43.2929 44.4351C43.3019 43.7563 43.7484 43.3187 44.4272 43.3008C44.5165 43.3008 44.6148 43.3008 44.7041 43.3008C46.6332 43.2919 48.0712 41.8718 48.0712 39.9427C48.0801 35.8165 48.0801 31.6992 48.0712 27.5729C48.0712 25.6438 46.66 24.1969 44.7309 24.188C38.0057 24.1791 31.2804 24.1791 24.5463 24.188C22.6171 24.188 21.1971 25.6349 21.1971 27.564C21.1881 31.6902 21.1971 35.8075 21.1971 39.9338C21.1971 40.2196 21.2239 40.5054 21.2864 40.7822C21.6526 42.2916 22.9565 43.3008 24.5463 43.3008C28.9137 43.3008 33.281 43.3098 37.6484 43.3008C38.1039 43.3008 38.4701 43.4437 38.7916 43.7742C40.1849 45.1853 41.596 46.5786 42.9982 47.9897C43.0786 48.0612 43.1054 48.1773 43.159 48.2755Z" fill="#FF2E35"/>
<path d="M38.9702 37.1121C38.3629 36.5137 37.7645 35.9064 37.1572 35.308C36.7553 34.9061 36.3534 34.5042 35.9515 34.1022L38.9524 31.1014C38.997 31.0567 39.0417 31.012 39.0953 30.9495C39.2739 30.7084 39.3275 30.4047 39.2471 30.1189C39.1578 29.8331 38.9524 29.6098 38.6666 29.5116C38.6398 29.5027 38.6219 29.4937 38.5951 29.4848L38.5058 29.458H38.2021L38.1486 29.4759C37.8806 29.5563 37.6931 29.7349 37.568 29.8599C36.9428 30.4851 36.3266 31.1014 35.7014 31.7265L34.6475 32.7804L33.5936 31.7265C32.9684 31.1014 32.3522 30.4851 31.727 29.8599C31.5841 29.717 31.4144 29.5473 31.1465 29.4759L31.0929 29.458H30.7892L30.7446 29.4669C30.3784 29.5563 30.1194 29.8063 30.0033 30.1725L29.9854 30.2261V30.5387L30.0033 30.5923C30.0837 30.8691 30.2623 31.0478 30.3873 31.1639C31.0214 31.798 31.6556 32.4321 32.2897 33.0573C32.6291 33.3967 32.9774 33.745 33.3168 34.0844C32.9684 34.4327 32.6201 34.781 32.2718 35.1293C31.6466 35.7545 31.0125 36.3886 30.3873 37.0138C30.2623 37.1299 30.0837 37.3175 30.0033 37.5854L29.9854 37.639V37.9695L30.0122 38.0409C30.0658 38.1928 30.1462 38.3624 30.3069 38.5053C30.691 38.8358 31.2358 38.809 31.602 38.4339L34.6297 35.4062L37.1483 37.9248C37.3269 38.1034 37.5055 38.2821 37.6841 38.4607C37.8717 38.6393 38.095 38.7286 38.3272 38.7286C38.4254 38.7286 38.5326 38.7108 38.6308 38.675C38.9702 38.5589 39.1935 38.2999 39.256 37.9427C39.3007 37.7373 39.2828 37.4157 38.9702 37.1121Z" fill="#FF2E35"/>
</g>
<defs>
<clipPath id="clip0_484_846">
<rect width="31.2682" height="30" fill="white" transform="translate(19 22)"/>
</clipPath>
</defs>
</svg>
