<svg width="20" height="16" viewBox="0 0 20 16" fill="none" xmlns="http://www.w3.org/2000/svg">
<path d="M18.9957 11.6793C18.9781 11.5915 18.9606 11.4993 18.9474 11.4115C18.9123 11.2096 18.8728 10.9989 18.8113 10.7926C18.4075 9.42322 17.5341 8.36543 16.2261 7.65438C16.0506 7.55782 15.8618 7.47443 15.6819 7.39542C16.1866 6.94773 16.5158 6.39469 16.665 5.74948C16.8669 4.88481 16.7309 4.00698 16.2788 3.27838C15.8267 2.54977 15.1025 2.03185 14.2422 1.82117C13.992 1.75972 13.7375 1.74217 13.54 1.73778C13.1844 1.72461 12.8947 1.98796 12.8728 2.33909C12.8552 2.67267 13.1098 2.95797 13.4697 2.99747C13.518 3.00186 13.5707 3.00625 13.619 3.01064C13.6497 3.01503 13.6804 3.01503 13.7067 3.01942C14.6767 3.11159 15.4405 3.91481 15.4844 4.8892C15.5326 5.99089 14.6943 6.89945 13.5795 6.96528C13.0528 6.99601 12.8684 7.31642 12.8684 7.61049C12.8728 7.90018 13.0615 8.2162 13.5838 8.24253H13.597C13.6102 8.24253 13.6233 8.24253 13.6365 8.24253H13.6848L13.7331 8.22498C15.0937 7.76411 15.6292 8.33471 16.3095 9.05453L16.3315 9.07648C17.1654 9.80947 17.6263 10.7488 17.7097 11.8768C17.7228 12.0611 17.7228 12.2411 17.7272 12.4342C17.7272 12.5615 17.7316 12.6932 17.736 12.8248C17.7448 13.0355 17.837 13.2242 17.995 13.3428C18.1003 13.4218 18.2276 13.4656 18.3637 13.4656C18.4163 13.4656 18.4734 13.4569 18.5261 13.4437C18.8333 13.3647 18.943 13.1101 18.9869 13.0092L19.0089 12.9609V11.7056L18.9957 11.6793Z" fill="#212121" stroke="#212121" stroke-width="0.3"/>
<path d="M14.3652 11.5165C13.54 9.89686 12.2189 8.75567 10.4369 8.13241C11.284 7.46525 11.8151 6.54792 11.9511 5.4989C12.1047 4.29627 11.7053 3.0673 10.8758 2.20702C10.1384 1.43892 9.08499 1 7.9877 1C7.97892 1 7.97453 1 7.96575 1C6.86846 1.00439 5.82383 1.4477 5.09962 2.2158C4.27884 3.08486 3.88382 4.31383 4.04183 5.50768C4.17789 6.54792 4.70898 7.46086 5.5517 8.12802C4.71776 8.41331 3.95844 8.83906 3.29128 9.40527C2.36078 10.1865 1.69362 11.1522 1.31176 12.2758C0.991354 13.2107 0.986965 14.1763 1.00891 15.0892C1.0133 15.256 1.10986 15.4843 1.27665 15.5808C1.44344 15.673 1.6629 15.7081 1.83846 15.6686C2.09743 15.6072 2.26421 15.3745 2.2686 15.0629C2.2686 14.9488 2.27299 14.8347 2.27299 14.7206C2.27738 14.4397 2.28177 14.1456 2.29494 13.8603C2.33883 12.9122 2.66802 12.0344 3.26934 11.2575C4.27884 9.94514 5.66143 9.19459 7.38199 9.02341C8.91381 8.86979 10.3008 9.2297 11.5078 10.0944C12.8904 11.0863 13.6278 12.4075 13.7024 14.0139C13.7068 14.1587 13.7068 14.3036 13.7068 14.4572C13.7068 14.6372 13.7068 14.8215 13.72 15.0102C13.7331 15.1902 13.8034 15.3833 13.9087 15.5194C14.0096 15.6511 14.1633 15.7213 14.3344 15.7213C14.4222 15.7213 14.5144 15.7037 14.6066 15.6642C14.747 15.6028 14.984 15.4448 14.9928 15.0454C14.9972 14.7688 14.9972 14.4923 14.9928 14.2334C14.9796 13.2107 14.7777 12.3241 14.3652 11.5165ZM10.7178 4.98537C10.7178 6.49086 9.49318 7.71105 7.99647 7.71105H7.99209C7.26787 7.71105 6.58316 7.42136 6.06524 6.90344C5.54732 6.38552 5.26641 5.70081 5.26641 4.98098C5.2708 3.47988 6.49538 2.25969 7.99647 2.25969C8.72508 2.25969 9.40979 2.54499 9.92332 3.05852C10.4369 3.57206 10.7178 4.25677 10.7178 4.98537Z" fill="#212121" stroke="#212121" stroke-width="0.3"/>
</svg>
