<svg width="16" height="11" viewBox="0 0 16 11" fill="none" xmlns="http://www.w3.org/2000/svg">
<path d="M1.44614 4.94771L1.44492 4.94796C1.08314 5.02426 0.817379 5.36559 0.853196 5.7179L0.85344 5.7203L0.85346 5.7203C0.897822 6.09637 1.20046 6.3619 1.58064 6.38401C1.64762 6.3879 1.71393 6.3879 1.77898 6.3879H1.78108H1.8018H1.82253H1.84325H1.86398H1.88471H1.90543H1.92616H1.94688H1.96761H1.98834H2.00906H2.02979H2.05052H2.07124H2.09197H2.1127H2.13343H2.15415H2.17488H2.19561H2.21633H2.23706H2.25779H2.27852H2.29924H2.31997H2.3407H2.36143H2.38216H2.40289H2.42361H2.44434H2.46507H2.4858H2.50653H2.52726H2.54798H2.56871H2.58944H2.61017H2.6309H2.65163H2.67236H2.69309H2.71382H2.73455H2.75528H2.77601H2.79673H2.81746H2.83819H2.85892H2.87965H2.90038H2.92111H2.94184H2.96257H2.9833H3.00403H3.02477H3.0455H3.06623H3.08696H3.10769H3.12842H3.14915H3.16988H3.19061H3.21134H3.23207H3.2528H3.27353H3.29427H3.315H3.33573H3.35646H3.37719H3.39792H3.41865H3.43939H3.46012H3.48085H3.50158H3.52231H3.54305H3.56378H3.58451H3.60524H3.62597H3.64671H3.66744H3.68817H3.7089H3.72964H3.75037H3.7711H3.79183H3.81257H3.8333H3.85403H3.87477H3.8955H3.91623H3.93696H3.9577H3.97843H3.99916H4.0199H4.04063H4.06136H4.0821H4.10283H4.12356H4.1443H4.16503H4.18577H4.2065H4.22723H4.24797H4.2687H4.28943H4.31017H4.3309H4.35164H4.37237H4.3931H4.41384H4.43457H4.45531H4.47604H4.49678H4.51751H4.53825H4.55898H4.57971H4.60045H4.62118H4.64192H4.66265H4.68339H4.70412H4.72486H4.74559H4.76633H4.78706H4.8078H4.82853H4.84927H4.87H4.89074H4.91147H4.93221H4.95294H4.97368H4.99441H5.01515H5.03588H5.05662H5.07736H5.09809H5.11883H5.13956H5.1603H5.18103H5.20177H5.2225H5.24324H5.26398H5.28471H5.30545H5.32618H5.34692H5.36766H5.38839H5.40913H5.42986H5.4506H5.47134H5.49207H5.51281H5.53354H5.55428H5.57502H5.59575H5.61649H5.63722H5.65796H5.6787H5.69943H5.72017H5.74091H5.76164H5.78238H5.80312H5.82385H5.84459H5.86532H5.88606H5.9068H5.92753H5.94827H5.96901H5.98974H6.01048H6.03122H6.05195H6.07269H6.09343H6.11416H6.1349H6.15564H6.17637H6.19711H6.21785H6.23859H6.25932H6.28006H6.3008H6.32153H6.34227H6.36301H6.38374H6.40448H6.42522H6.44595H6.46669H6.48743H6.50817H6.5289H6.54964H6.57038H6.59111H6.61185H6.63259H6.65332H6.67406H6.6948H6.71554H6.73627H6.75701H6.77775H6.79848H6.81922H6.83996H6.8607H6.88143H6.90217H6.92291H6.94364H6.96438H6.98512H7.00586H7.02659H7.04733H7.06807H7.0888H7.10954H7.13028H7.15102H7.17175H7.19249H7.21323H7.23396H7.2547H7.27544H7.29618H7.31691H7.33765H7.35839H7.37912H7.39986H7.4206H7.44133H7.46207H7.48281H7.50355H7.52428H7.54502H7.56576H7.58649H7.60723H7.62797H7.64871H7.66944H7.69018H7.71092H7.73165H7.75239H7.77313H7.79386H7.8146H7.83534H7.85607H7.87681H7.89755H7.91829H7.93902H7.95976H7.9805H8.00123H8.02197H8.04271H8.06344H8.08418H8.10492H8.12565H8.14639H8.16713H8.18786H8.2086H8.22934H8.25007H8.27081H8.29155H8.31228H8.33302H8.35376H8.37449H8.39523H8.41596H8.4367H8.45744H8.47817H8.49891H8.51965H8.54038H8.56112H8.58186H8.60259H8.62333H8.64406H8.6648H8.68554H8.70627H8.72701H8.74774H8.76848H8.78922H8.80995H8.83069H8.85142H8.87216H8.8929H8.91363H8.93437H8.9551H8.97584H8.99657H9.01731H9.03805H9.05878H9.07952H9.10025H9.12099H9.14172H9.16246H9.18319H9.20393H9.22466H9.2454H9.26614H9.28687H9.30761H9.32834H9.34908H9.36981H9.39055H9.41128H9.43202H9.45275H9.47348H9.49422H9.51495H9.53569H9.55642H9.57716H9.59789H9.61863H9.63936H9.6601H9.68083H9.70157H9.7223H9.74303H9.76377H9.7845H9.80524H9.82597H9.8467H9.86744H9.88817H9.90891H9.92964H9.95037H9.97111H9.99184H10.0126H10.0333H10.054H10.0748H10.0955H10.1162H10.137H10.1577H10.1784H10.1992H10.2199H10.2406H10.2614H10.2821H10.3028H10.3236H10.3443H10.365H10.3858H10.4065H10.4272H10.448H10.4687H10.4894H10.5102H10.5309H10.5516H10.5724H10.5931H10.6138H10.6346H10.6553H10.676H10.6968H10.7175H10.7382H10.759H10.7797H10.8004H10.8211H10.8419H10.8626H10.8833H10.9041H10.9248H10.9455H10.9663H10.987H11.0077H11.0285H11.0492H11.0699H11.0907H11.1114H11.1321H11.1528H11.1736H11.1943H11.215H11.2358H11.2565H11.2772H11.298H11.3187H11.3394H11.3601H11.3809H11.4016H11.4223H11.4431H11.4638H11.4845H11.5052H11.526H11.5467H11.5674H11.5882H11.6089H11.6296H11.6504H11.6711H11.6918H11.7125H11.7333H11.754H11.7747H11.7955H11.8162H11.8369H11.8576H11.8784H11.8991H11.9198H11.9405H11.9613H11.982H12.0027H12.0235H12.0442H12.0649H12.0856H12.1064H12.1271H12.1478H12.1685H12.1893H12.21H12.2307H12.2382L1.44614 4.94771ZM1.44614 4.94771C1.53982 4.92876 1.63737 4.92944 1.7168 4.93C1.7296 4.93009 1.74192 4.93017 1.75369 4.93017H1.77448H1.79528H1.81607H1.83686H1.85766H1.87845H1.89925H1.92004H1.94084H1.96163H1.98243H2.00322H2.02401H2.04481H2.0656H2.0864H2.10719H2.12799H2.14878H2.16958H2.19037H2.21116H2.23196H2.25275H2.27355H2.29434H2.31514H2.33593H2.35673H2.37752H2.39831H2.41911H2.4399H2.4607H2.48149H2.50229H2.52308H2.54388H2.56467H2.58546H2.60626H2.62705H2.64785H2.66864H2.68944H2.71023H2.73103H2.75182H2.77261H2.79341H2.8142H2.835H2.85579H2.87659H2.89738H2.91818H2.93897H2.95976H2.98056H3.00135H3.02215H3.04294H3.06374H3.08453H3.10533H3.12612H3.14691H3.16771H3.1885H3.2093H3.23009H3.25089H3.27168H3.29248H3.31327H3.33406H3.35486H3.37565H3.39645H3.41724H3.43804H3.45883H3.47963H3.50042H3.52121H3.54201H3.5628H3.5836H3.60439H3.62519H3.64598H3.66678H3.68757H3.70836H3.72916H3.74995H3.77075H3.79154H3.81234H3.83313H3.85393H3.87472H3.89551H3.91631H3.9371H3.9579H3.97869H3.99949H4.02028H4.04108H4.06187H4.08266H4.10346H4.12425H4.14505H4.16584H4.18664H4.20743H4.22823H4.24902H4.26981H4.29061H4.3114H4.3322H4.35299H4.37379H4.39458H4.41538H4.43617H4.45696H4.47776H4.49855H4.51935H4.54014H4.56094H4.58173H4.60253H4.62332H4.64411H4.66491H4.6857H4.7065H4.72729H4.74809H4.76888H4.78968H4.81047H4.83126H4.85206H4.87285H4.89365H4.91444H4.93524H4.95603H4.97683H4.99762H5.01841H5.03921H5.06H5.0808H5.10159H5.12239H5.14318H5.16398H5.18477H5.20556H5.22636H5.24715H5.26795H5.28874H5.30954H5.33033H5.35113H5.37192H5.39271H5.41351H5.4343H5.4551H5.47589H5.49669H5.51748H5.53828H5.55907H5.57986H5.60066H5.62145H5.64225H5.66304H5.68384H5.70463H5.72543H5.74622H5.76701H5.78781H5.8086H5.8294H5.85019H5.87099H5.89178H5.91258H5.93337H5.95416H5.97496H5.99575H6.01655H6.03734H6.05814H6.07893H6.09973H6.12052H6.14131H6.16211H6.1829H6.2037H6.22449H6.24529H6.26608H6.28688H6.30767H6.32846H6.34926H6.37005H6.39085H6.41164H6.43244H6.45323H6.47403H6.49482H6.51561H6.53641H6.5572H6.578H6.59879H6.61959H6.64038H6.66118H6.68197H6.70276H6.72356H6.74435H6.76515H6.78594H6.80674H6.82753H6.84833H6.86912H6.88991H6.91071H6.9315H6.9523H6.97309H6.99389H7.01468H7.03548H7.05627H7.07706H7.09786H7.11865H7.13945H7.16024H7.18104H7.20183H7.22263H7.24342H7.26421H7.28501H7.3058H7.3266H7.34739H7.36819H7.38898H7.40978H7.43057H7.45136H7.47216H7.49295H7.51375H7.53454H7.55534H7.57613H7.59693H7.61772H7.63851H7.65931H7.6801H7.7009H7.72169H7.74249H7.76328H7.78408H7.80487H7.82566H7.84646H7.86725H7.88805H7.90884H7.92964H7.95043H7.97123H7.99202H8.01281H8.03361H8.0544H8.0752H8.09599H8.11679H8.13758H8.15838H8.17917H8.19997H8.22076H8.24155H8.26235H8.28314H8.30394H8.32473H8.34553H8.36632H8.38712H8.40791H8.4287H8.4495H8.47029H8.49109H8.51188H8.53268H8.55347H8.57427H8.59506H8.61585H8.63665H8.65744H8.67824H8.69903H8.71983H8.74062H8.76142H8.78221H8.803H8.8238H8.84459H8.86539H8.88618H8.90698H8.92777H8.94857H8.96936H8.99015H9.01095H9.03174H9.05254H9.07333H9.09413H9.11492H9.13571H9.15651H9.1773H9.1981H9.21889H9.23969H9.26048H9.28128H9.30207H9.32286H9.34366H9.36445H9.38525H9.40604H9.42684H9.44763H9.46843H9.48922H9.51001H9.53081H9.5516H9.5724H9.59319H9.61399H9.63478H9.65558H9.67637H9.69716H9.71796H9.73875H9.75955H9.78034H9.80114H9.82193H9.84273H9.86352H9.88431H9.90511H9.9259H9.9467H9.96749H9.98829H10.0091H10.0299H10.0507H10.0715H10.0923H10.1131H10.1338H10.1546H10.1754H10.1962H10.217H10.2378H10.2586H10.2794H10.3002H10.321H10.3418H10.3626H10.3834H10.4042H10.425H10.4458H10.4666H10.4874H10.5081H10.5289H10.5497H10.5705H10.5913H10.6121H10.6329H10.6537H10.6745H10.6953H10.7161H10.7369H10.7577H10.7785H10.7993H10.8201H10.8409H10.8617H10.8824H10.9032H10.924H10.9448H10.9656H10.9864H11.0072H11.028H11.0488H11.0696H11.0904H11.1112H11.132H11.1528H11.1736H11.1944H11.2152H11.236H11.2567H11.2775H11.2983H11.3191H11.3399H11.3607H11.3815H11.4023H11.4231H11.4439H11.4647H11.4855H11.5063H11.5271H11.5479H11.5687H11.5895H11.6103H11.631H11.6518H11.6726H11.6934H11.7142H11.735H11.7558H11.7766H11.7974H11.8182H11.839H11.8598H11.8806H11.9014H11.9222H11.943H11.9638H11.9846H12.0053H12.0261H12.0469H12.0677H12.0885H12.1093H12.1301H12.1509H12.1717H12.1925H12.2133H12.2338L1.44614 4.94771ZM9.40861 10.3705L9.40769 10.37L9.47366 10.2353L9.40861 10.3705ZM12.6078 6.2379C12.5719 6.27573 12.5434 6.30404 12.5186 6.32864C12.5028 6.3443 12.4885 6.35845 12.4748 6.3726C12.4693 6.3777 12.4638 6.3828 12.4583 6.3879H12.4583H12.4579H12.4576H12.4572H12.4569H12.4565H12.4561H12.4558H12.4554H12.4551H12.4547H12.4543H12.454H12.4536H12.4533H12.4529H12.4526H12.4522H12.4518H12.4515H12.4511H12.4508H12.4504H12.4501H12.4497H12.4494H12.449H12.4486H12.4483H12.4479H12.4476H12.4472H12.4469H12.4465H12.4462H12.4458H12.4455H12.4451H12.4448H12.4444H12.4441H12.4437H12.4434H12.443H12.4427H12.4423H12.4419H12.4416H12.4412H12.4409H12.4405H12.4402H12.4399H12.4395H12.4392H12.4388H12.4385H12.4381H12.4378H12.4374H12.4371H12.4367H12.4364H12.436H12.4357H12.4353H12.435H12.4346H12.4343H12.4339H12.4336H12.4332H12.4329H12.4326H12.4322H12.4319H12.4315H12.4312H12.4308H12.4305H12.4301H12.4298H12.4294H12.4291H12.4288H12.4284H12.4281H12.4277H12.4274H12.427H12.4267H12.4263H12.426H12.4257H12.4253L12.6078 6.2379ZM10.3663 10.1851L10.3609 10.1897L10.264 10.0751L10.3663 10.1851Z" fill="#212121" stroke="#212121" stroke-width="0.3"/>
</svg>
