<svg width="21" height="20" viewBox="0 0 21 20" fill="none" xmlns="http://www.w3.org/2000/svg">
<path d="M11.7244 19.9999C10.2194 19.9999 8.74731 19.9999 7.25879 19.9999C7.25879 15.5081 7.25879 11.0229 7.25879 6.52123C8.73748 6.52123 10.2162 6.52123 11.7244 6.52123C11.7244 7.14418 11.7244 7.76386 11.7244 8.28845C11.9801 8.06877 12.2719 7.81959 12.5571 7.56714C13.3408 6.87861 14.2096 6.34418 15.2686 6.23271C17.4358 6.0032 19.6949 6.93435 20.5539 9.61304C20.8293 10.4721 20.9309 11.3573 20.9342 12.2524C20.9408 14.7671 20.9375 17.2786 20.9375 19.7934C20.9375 19.8557 20.9309 19.9212 20.9244 19.9934C19.4326 19.9934 17.9539 19.9934 16.449 19.9934C16.449 19.9016 16.449 19.8163 16.449 19.7311C16.449 17.4491 16.4588 15.1671 16.4424 12.8884C16.4391 12.3835 16.3899 11.8655 16.2653 11.3803C15.8457 9.74418 13.944 9.17041 12.6555 10.2753C12.0653 10.7803 11.7309 11.4196 11.7309 12.2163C11.7309 13.3343 11.7244 14.4557 11.7244 15.5737C11.7244 16.9606 11.7244 18.3507 11.7244 19.7376C11.7244 19.8229 11.7244 19.9081 11.7244 19.9999Z" fill="#1D8BFA"/>
<path d="M0.281982 6.51758C1.77379 6.51758 3.25247 6.51758 4.74428 6.51758C4.74428 11.0094 4.74428 15.4881 4.74428 19.9897C3.26231 19.9897 1.77706 19.9897 0.281982 19.9897C0.281982 15.5012 0.281982 11.0159 0.281982 6.51758Z" fill="#1D8BFA"/>
<path d="M5.04571 2.34485C5.05226 3.51535 4.21292 4.46289 3.03259 4.62682C2.22276 4.7383 1.45882 4.64321 0.816199 4.10223C0.0817725 3.48584 -0.134621 2.67272 0.0784938 1.76125C0.28833 0.856329 0.908002 0.325181 1.79325 0.0956731C2.308 -0.0387531 2.82931 -0.028917 3.34407 0.108788C4.37685 0.387476 5.03915 1.26289 5.04571 2.34485Z" fill="#1D8BFA"/>
</svg>
