<svg width="12" height="9" viewBox="0 0 12 9" fill="none" xmlns="http://www.w3.org/2000/svg">
<g clip-path="url(#clip0_183_95)">
<path d="M4.75766 9C4.08197 9 3.48442 8.54035 3.30516 7.88764C3.27298 7.77273 3.25919 7.66241 3.25919 7.56588C3.25919 7.13381 3.25919 6.69714 3.2546 6.26507C3.25 4.68846 3.2454 3.05669 3.25919 1.4525C3.26839 0.64811 3.93948 0 4.76226 0C4.77605 0 4.78524 0 4.79903 0C5.04724 0.00459653 5.27707 0.0689479 5.48391 0.188458L6.57789 0.822778C7.93846 1.60878 9.3404 2.41777 10.7194 3.22217C11.1836 3.49336 11.4318 3.976 11.4318 4.61491C11.4088 5.12972 11.133 5.5526 10.6412 5.84219C9.68973 6.39377 8.74285 6.94076 7.79137 7.49234L6.92263 7.99336C6.77554 8.0761 6.63304 8.16343 6.48595 8.24617C6.1596 8.43922 5.81946 8.63687 5.48391 8.82073C5.25409 8.94024 5.01047 9 4.75766 9ZM4.82201 7.39581L9.82763 4.5L4.82201 1.60878V7.39581Z" fill="#4F80FF"/>
<path d="M2.19717 4.49997C2.19717 5.11131 1.70534 5.60773 1.0986 5.60773C0.49186 5.60773 -0.00456486 5.10671 3.16653e-05 4.49997C0.00462819 3.89323 0.49186 3.4014 1.09401 3.4014C1.70075 3.3968 2.19717 3.88863 2.19717 4.49997Z" fill="#4F80FF"/>
</g>
<defs>
<clipPath id="clip0_183_95">
<rect width="11.427" height="9" fill="white"/>
</clipPath>
</defs>
</svg>
