<svg width="51" height="51" viewBox="0 0 51 51" fill="none" xmlns="http://www.w3.org/2000/svg">
<path d="M7.93692 50C7.08527 49.739 6.19241 49.5742 5.40945 49.1896C2.66219 47.8022 1.19241 45.5082 1.01384 42.4313C0.972633 41.6484 1.00011 40.8654 1.00011 40.0824C1.00011 29.3956 1.00011 18.6951 1.00011 8.00824C1.00011 4.49176 3.01934 1.56593 6.27483 0.467033C7.11274 0.178571 8.01934 0.0412088 8.89846 0.0274725C15.382 -0.0137363 21.8655 0 28.3353 0.0137363C32.8133 0.0274725 36.2336 3.4478 36.2474 7.93956C36.2474 9.14835 36.2474 10.3434 36.2474 11.5522C36.2474 12.8022 35.4369 13.6676 34.3105 13.6813C33.1567 13.6951 32.3463 12.8159 32.3463 11.5385C32.3463 10.4258 32.3463 9.32692 32.3463 8.21429C32.3463 5.54945 30.7254 3.91484 28.0743 3.91484C24.5578 3.91484 21.0413 3.91484 17.5248 3.91484C14.6814 3.91484 11.8243 3.9011 8.98088 3.91484C7.03033 3.91484 5.57428 5 5.06604 6.81319C4.95615 7.21154 4.91494 7.6511 4.91494 8.06319C4.9012 19.3544 4.9012 30.6456 4.91494 41.9506C4.91494 44.4231 6.57703 46.0852 9.04956 46.0989C15.4507 46.0989 21.838 46.0989 28.2391 46.0989C30.6842 46.0989 32.3463 44.4231 32.36 41.9918C32.36 40.8242 32.36 39.6429 32.36 38.4753C32.36 37.2115 33.1842 36.3324 34.338 36.3462C35.4644 36.3599 36.2748 37.2253 36.2611 38.4753C36.2474 40.0687 36.3298 41.6758 36.1512 43.2555C35.7666 46.7033 33.0331 49.3956 29.599 49.9176C29.5029 49.9313 29.4204 49.9725 29.338 50.0137C22.1952 50 15.066 50 7.93692 50Z" fill="#F78F1E"/>
<path d="M50.9039 26.1808C50.5468 27.5407 49.6539 28.5297 48.6649 29.4775C47.4836 30.6176 46.3435 31.7989 45.1622 32.9528C44.5166 33.5846 43.6237 33.6808 42.8682 33.255C42.1265 32.8429 41.7144 32.0324 41.9342 31.1945C42.044 30.7824 42.305 30.3566 42.6072 30.0407C43.5276 29.0654 44.5028 28.1313 45.5605 27.0736C45.2446 27.0736 45.066 27.0736 44.8875 27.0736C37.3875 27.0736 29.8875 27.0736 22.3875 27.0736C21.7419 27.0736 21.1512 26.95 20.6979 26.4555C20.1622 25.8649 19.9973 25.178 20.2858 24.4225C20.5743 23.667 21.1512 23.255 21.9479 23.1725C22.1402 23.1451 22.3325 23.1588 22.5386 23.1588C29.9973 23.1588 37.4424 23.1588 44.9012 23.1588C45.0798 23.1588 45.2583 23.1588 45.5193 23.1588C45.382 22.994 45.2995 22.8841 45.2034 22.7879C44.2831 21.8676 43.349 20.961 42.4561 20.0132C41.3847 18.8731 41.9342 17.1011 43.4314 16.7577C44.077 16.6066 44.6814 16.7714 45.1484 17.2247C46.7281 18.7769 48.3215 20.3154 49.8188 21.9363C50.327 22.4995 50.5605 23.3236 50.9314 24.0242C50.9039 24.7385 50.9039 25.4528 50.9039 26.1808Z" fill="#F78F1E"/>
</svg>
