<svg width="24" height="24" viewBox="0 0 24 24" fill="none" xmlns="http://www.w3.org/2000/svg">
<path d="M11.3117 23C11.2294 22.9913 11.1472 22.9783 11.0649 22.9697C10.8873 22.948 10.7054 22.9264 10.5279 22.9004C9.15503 22.7055 7.86015 22.2768 6.6822 21.6315C6.61724 21.5969 6.52629 21.5752 6.43535 21.5752C6.37905 21.5752 6.32708 21.5839 6.27944 21.5969C5.82472 21.7311 5.36999 21.8783 4.92826 22.0256L4.6944 22.1035C4.0448 22.3158 3.39952 22.528 2.74991 22.7402L1.94007 23H1.62393C1.31212 22.8917 1.10858 22.6882 1.00464 22.3807V22.0862C1.0133 22.0776 1.02196 22.0602 1.03062 22.0429C1.15621 21.6445 1.28613 21.2461 1.41173 20.852C1.73653 19.8429 2.06999 18.7949 2.40346 17.7685C2.46409 17.5823 2.4511 17.435 2.36015 17.2748C1.75818 16.1835 1.35543 15.0185 1.16487 13.8102C1.1259 13.5547 1.08692 13.2906 1.05661 13.0394C1.03928 12.9224 1.02629 12.8055 1.00897 12.6886V11.3591C1.0133 11.3417 1.01763 11.3287 1.02196 11.3114C1.03062 11.2681 1.04362 11.2205 1.04795 11.1685C1.15621 9.60512 1.58062 8.14567 2.29952 6.8378C3.14401 5.29173 4.23102 4.0315 5.52157 3.09173C6.81645 2.15197 8.35385 1.50669 10.0861 1.17323C10.372 1.11693 10.6664 1.08228 10.9566 1.04764C11.0865 1.03031 11.2251 1.01732 11.3594 1H12.6413C12.6542 1.00433 12.6672 1.00866 12.6802 1.00866C12.7235 1.01732 12.7625 1.03031 12.8101 1.03465C14.3822 1.14291 15.846 1.56299 17.1625 2.29055C18.7086 3.1437 19.9688 4.23071 20.9086 5.52559C21.8483 6.82047 22.4936 8.35354 22.8271 10.0902C22.8834 10.376 22.918 10.6705 22.9527 10.9563C22.97 11.0862 22.983 11.2248 23.0003 11.3591V12.6453C22.996 12.6626 22.9916 12.6756 22.9873 12.6929C22.9787 12.7362 22.9657 12.7839 22.9613 12.8358C22.8531 14.3992 22.4287 15.8587 21.7098 17.1665C20.8566 18.7126 19.7696 19.9728 18.479 20.9126C17.1842 21.8524 15.6511 22.502 13.9188 22.8311C13.633 22.8874 13.3385 22.9221 13.0483 22.9567C12.9184 22.974 12.7798 22.987 12.6456 23.0043H11.3117V23ZM6.48732 19.9512C6.7818 19.9512 7.08062 20.0421 7.42708 20.237C8.84755 21.0382 10.3633 21.4453 11.931 21.4453C12.585 21.4453 13.2519 21.376 13.9231 21.2331C16.279 20.7437 18.1975 19.4965 19.6267 17.526C21.2464 15.2957 21.7877 12.7795 21.229 10.0512C20.757 7.74724 19.5314 5.84606 17.5869 4.40394C15.9283 3.18268 14.079 2.55906 12.0956 2.55906C11.6149 2.55906 11.1168 2.59803 10.6188 2.66732C8.07235 3.03976 5.98928 4.29567 4.4259 6.39606C2.78456 8.60473 2.22157 11.1382 2.75858 13.9185C2.95779 14.9535 3.35188 15.9539 3.92787 16.8894C4.11409 17.1925 4.1444 17.4827 4.02314 17.8032C3.94952 18.0067 3.88023 18.2189 3.8196 18.4224C3.79795 18.5004 3.77196 18.574 3.74598 18.6476C3.58141 19.163 3.41684 19.674 3.24795 20.2067L2.99243 21.0079L3.15267 20.9559C3.43417 20.865 3.71999 20.7783 3.99283 20.6917C4.64676 20.4882 5.26172 20.302 5.87235 20.0681C6.08889 19.9902 6.2881 19.9512 6.48732 19.9512Z" fill="#F78F1E" stroke="#F78F1E" stroke-width="0.3"/>
<path d="M7.66935 12.9956C7.40518 12.9956 7.15833 12.8917 6.96778 12.7011C6.77723 12.5106 6.67329 12.2594 6.67762 11.9995C6.68195 11.4669 7.13234 11.0121 7.66502 11.0078H7.66935C7.93353 11.0078 8.18038 11.1117 8.37093 11.3023C8.56148 11.4929 8.66541 11.744 8.66108 12.0039C8.65675 12.5366 8.20636 12.9913 7.67368 12.9956H7.66935Z" fill="#F78F1E" stroke="#F78F1E" stroke-width="0.3"/>
<path d="M11.9913 12.9956C11.45 12.9913 11.0082 12.5452 11.0039 12.0039C11.0039 11.7397 11.1078 11.4929 11.2984 11.3023C11.4889 11.1117 11.7358 11.0078 12 11.0078H12.0086C12.55 11.0121 12.9917 11.4582 12.996 11.9995C12.996 12.2637 12.8921 12.5106 12.7015 12.7011C12.511 12.8917 12.2641 12.9956 12 12.9956H11.9913Z" fill="#F78F1E" stroke="#F78F1E" stroke-width="0.3"/>
<path d="M16.3264 12.9956C15.7851 12.9956 15.339 12.5495 15.3347 12.0082C15.3347 11.744 15.4387 11.4972 15.6249 11.3023C15.8154 11.1117 16.0623 11.0078 16.3264 11.0078C16.8721 11.0078 17.3182 11.4539 17.3225 11.9952C17.3225 12.2594 17.2186 12.5062 17.0324 12.7011C16.8418 12.8873 16.595 12.9956 16.3264 12.9956Z" fill="#F78F1E" stroke="#F78F1E" stroke-width="0.3"/>
</svg>
