<svg width="19" height="19" viewBox="0 0 19 19" fill="none" xmlns="http://www.w3.org/2000/svg">
<path d="M8.96823 18C8.90465 17.9933 8.84106 17.9833 8.77748 17.9766C8.64028 17.9598 8.49972 17.9431 8.36252 17.923C7.30169 17.7724 6.3011 17.4411 5.39087 16.9425C5.34067 16.9157 5.27039 16.899 5.20012 16.899C5.15661 16.899 5.11646 16.9057 5.07965 16.9157C4.72827 17.0195 4.37689 17.1333 4.03555 17.247L3.85484 17.3073C3.35287 17.4713 2.85425 17.6352 2.35228 17.7992L1.7265 18H1.48221C1.24126 17.9163 1.08398 17.7591 1.00366 17.5215V17.2939C1.01036 17.2872 1.01705 17.2738 1.02374 17.2604C1.12079 16.9526 1.22118 16.6447 1.31823 16.3402C1.56921 15.5604 1.82689 14.7506 2.08457 13.9575C2.13142 13.8136 2.12138 13.6998 2.0511 13.576C1.58595 12.7327 1.27473 11.8325 1.12748 10.8988C1.09736 10.7014 1.06724 10.4972 1.04382 10.3032C1.03043 10.2128 1.02039 10.1224 1.00701 10.0321V9.00472C1.01036 8.99134 1.0137 8.9813 1.01705 8.96791C1.02374 8.93445 1.03378 8.89764 1.03713 8.85748C1.12079 7.64941 1.44874 6.52165 2.00425 5.51102C2.65681 4.31634 3.49677 3.34252 4.49402 2.61634C5.49461 1.89016 6.6826 1.39154 8.02118 1.13386C8.24205 1.09035 8.46961 1.06358 8.69382 1.03681C8.79421 1.02343 8.9013 1.01339 9.00504 1H9.99559C10.0056 1.00335 10.0157 1.00669 10.0257 1.00669C10.0592 1.01339 10.0893 1.02343 10.1261 1.02677C11.3409 1.11043 12.472 1.43504 13.4893 1.99724C14.684 2.6565 15.6578 3.49646 16.384 4.49705C17.1102 5.49764 17.6088 6.68228 17.8665 8.02421C17.91 8.24508 17.9367 8.47264 17.9635 8.6935C17.9769 8.7939 17.9869 8.90098 18.0003 9.00472V9.99862C17.997 10.012 17.9936 10.022 17.9903 10.0354C17.9836 10.0689 17.9735 10.1057 17.9702 10.1459C17.8865 11.3539 17.5586 12.4817 17.0031 13.4923C16.3438 14.687 15.5039 15.6608 14.5066 16.387C13.506 17.1132 12.3214 17.6152 10.9828 17.8695C10.7619 17.913 10.5344 17.9398 10.3102 17.9665C10.2098 17.9799 10.1027 17.99 9.99894 18.0033H8.96823V18ZM5.24028 15.6441C5.46783 15.6441 5.69874 15.7144 5.96646 15.865C7.06409 16.4841 8.23535 16.7986 9.44677 16.7986C9.95209 16.7986 10.4674 16.7451 10.9861 16.6346C12.8066 16.2565 14.2891 15.2927 15.3934 13.7701C16.645 12.0467 17.0633 10.1024 16.6316 7.99409C16.2669 6.21378 15.3198 4.74469 13.8172 3.63032C12.5356 2.68661 11.1066 2.20472 9.57394 2.20472C9.20248 2.20472 8.81764 2.23484 8.4328 2.28839C6.46508 2.57618 4.85543 3.54665 3.64736 5.16969C2.37906 6.87638 1.94402 8.83406 2.35898 10.9825C2.51291 11.7823 2.81744 12.5553 3.26252 13.2782C3.40642 13.5124 3.42984 13.7366 3.33614 13.9843C3.27925 14.1415 3.22571 14.3055 3.17886 14.4628C3.16213 14.523 3.14205 14.5799 3.12197 14.6368C2.9948 15.035 2.86764 15.4299 2.73713 15.8415L2.53969 16.4606L2.6635 16.4205C2.88102 16.3502 3.10189 16.2833 3.31272 16.2163C3.81803 16.0591 4.29323 15.9152 4.76508 15.7344C4.9324 15.6742 5.08634 15.6441 5.24028 15.6441Z" fill="#212121" stroke="#212121" stroke-width="0.3"/>
<path d="M6.15389 10.2694C5.94976 10.2694 5.75901 10.1891 5.61176 10.0419C5.46452 9.89462 5.38421 9.70052 5.38755 9.49974C5.3909 9.08812 5.73893 8.73674 6.15054 8.7334H6.15389C6.35802 8.7334 6.54877 8.81371 6.69602 8.96096C6.84326 9.1082 6.92357 9.3023 6.92023 9.50308C6.91688 9.9147 6.56885 10.2661 6.15724 10.2694H6.15389Z" fill="#212121" stroke="#212121" stroke-width="0.3"/>
<path d="M9.49322 10.2694C9.07491 10.2661 8.73357 9.92139 8.73022 9.50308C8.73022 9.29895 8.81054 9.1082 8.95778 8.96096C9.10503 8.81371 9.29578 8.7334 9.49991 8.7334H9.5066C9.92491 8.73674 10.2662 9.08143 10.2696 9.49974C10.2696 9.70387 10.1893 9.89462 10.042 10.0419C9.89479 10.1891 9.70404 10.2694 9.49991 10.2694H9.49322Z" fill="#212121" stroke="#212121" stroke-width="0.3"/>
<path d="M12.8432 10.2694C12.4249 10.2694 12.0803 9.92474 12.0769 9.50643C12.0769 9.3023 12.1572 9.11155 12.3011 8.96096C12.4484 8.81371 12.6391 8.7334 12.8432 8.7334C13.2649 8.7334 13.6096 9.07808 13.6129 9.49639C13.6129 9.70052 13.5326 9.89127 13.3887 10.0419C13.2415 10.1858 13.0507 10.2694 12.8432 10.2694Z" fill="#212121" stroke="#212121" stroke-width="0.3"/>
</svg>
