<svg width="20" height="20" viewBox="0 0 20 20" fill="none" xmlns="http://www.w3.org/2000/svg">
<rect width="20" height="2" rx="1" fill="#212121"/>
<rect y="9" width="19" height="2" rx="1" fill="#212121"/>
<rect y="18" width="20" height="2" rx="1" fill="#212121"/>
<path d="M19.2929 10.7774C19.6834 10.3869 19.6834 9.75373 19.2929 9.36321L15.0503 5.12057C14.6597 4.73004 14.0266 4.73004 13.636 5.12057C13.2455 5.51109 13.2455 6.14425 13.636 6.53478L17.8787 10.7774C18.2692 11.1679 18.9024 11.1679 19.2929 10.7774Z" fill="#212121"/>
<path d="M19.2929 9.36321C19.6834 9.75373 19.6834 10.3869 19.2929 10.7774L15.0503 15.0201C14.6597 15.4106 14.0266 15.4106 13.636 15.0201C13.2455 14.6295 13.2455 13.9964 13.636 13.6058L17.8787 9.36321C18.2692 8.97268 18.9024 8.97268 19.2929 9.36321Z" fill="#212121"/>
</svg>
