<svg width="14" height="10" viewBox="0 0 14 10" fill="none" xmlns="http://www.w3.org/2000/svg">
<path d="M11.5726 4.08017C11.5139 4.08017 11.4591 4.08017 11.4004 4.08017C7.85152 4.08017 4.30261 4.08017 0.753687 4.08017C0.659779 4.08017 0.565872 4.07653 0.475877 4.09474C0.182416 4.15663 -0.0249627 4.43332 0.00242696 4.70272C0.0376423 5.00126 0.276324 5.21606 0.589349 5.23426C0.651954 5.2379 0.714558 5.2379 0.781076 5.2379C4.31826 5.2379 7.85935 5.2379 11.3965 5.2379C11.4552 5.2379 11.51 5.2379 11.6078 5.2379C11.5491 5.29979 11.51 5.3362 11.4748 5.3726C10.4379 6.33738 9.40491 7.30215 8.36802 8.26328C8.23107 8.3907 8.13325 8.52905 8.13716 8.71472C8.13716 8.94772 8.25063 9.12611 8.47366 9.23533C8.70061 9.34455 8.92755 9.32271 9.13493 9.18436C9.18188 9.1516 9.22101 9.11155 9.26405 9.07514C10.6766 7.76087 12.0891 6.4466 13.4977 5.13232C13.8381 4.81558 13.8381 4.49885 13.4977 4.18575C12.0774 2.86055 10.6531 1.539 9.23275 0.213802C9.04493 0.0390511 8.83364 -0.0446839 8.57148 0.0244884C8.14107 0.137349 7.97673 0.621555 8.25454 0.945573C8.28976 0.989261 8.3328 1.02567 8.37584 1.06571C9.40882 2.02685 10.4379 2.98798 11.4709 3.94547C11.51 3.98188 11.557 4.00736 11.5961 4.03649C11.5922 4.04741 11.5804 4.06197 11.5726 4.08017Z" fill="#212121"/>
</svg>
