<svg width="21" height="18" viewBox="0 0 21 18" fill="none" xmlns="http://www.w3.org/2000/svg">
<path d="M10.4412 17C9.31638 17 8.22543 16.7633 7.19932 16.2999C6.2465 15.8664 5.57558 15.303 5.09635 14.5295C4.7778 14.0194 4.62558 13.4659 4.6284 12.8391C4.63122 12.1623 4.63122 11.4722 4.63122 10.8054C4.63122 10.1052 4.63122 9.38175 4.63403 8.6716C4.63403 8.43155 4.55228 8.28152 4.36905 8.1915C3.92647 7.96812 3.47543 7.73807 3.03849 7.51469C2.51133 7.24463 1.96445 6.96458 1.4232 6.69452C1.20332 6.5845 1.07365 6.4578 1.00317 6.27443V6.00104C1.07365 5.821 1.19768 5.69765 1.4232 5.58095C4.23092 4.14732 7.19368 2.63367 10.2241 1.07668C10.3228 1.02667 10.413 1 10.5032 1C10.5906 1 10.6808 1.02334 10.7766 1.07335C14.0664 2.76037 16.9502 4.23734 19.5972 5.58762C19.8087 5.69431 19.9299 5.821 20.0004 5.99771V6.2711C19.9299 6.4578 19.7974 6.58783 19.5662 6.69785C19.2646 6.84455 18.963 7.00125 18.6698 7.15128C18.5429 7.21463 18.4189 7.28131 18.292 7.34799L18.1906 7.40133V9.04501C18.1906 11.2021 18.1906 13.4326 18.1906 15.6264C18.1906 15.7297 18.1877 15.8331 18.1652 15.9231C18.1145 16.1332 17.9453 16.2832 17.7564 16.2832C17.7395 16.2832 17.7254 16.2832 17.7085 16.2798C17.5056 16.2532 17.342 16.0531 17.3223 15.8131C17.3195 15.7631 17.3195 15.7064 17.3195 15.6497C17.3195 15.6297 17.3195 15.6064 17.3195 15.5864C17.3195 13.5526 17.3195 7.85476 17.3195 7.85476L17.0855 7.97479C17.032 8.00146 16.9812 8.02813 16.9305 8.05147C16.7923 8.11815 16.6655 8.1815 16.5386 8.26151C16.3864 8.3582 16.3836 8.62826 16.3836 8.65826C16.3836 9.00834 16.378 9.36508 16.3751 9.71181C16.3667 10.6253 16.3582 11.5722 16.3892 12.5024C16.4315 13.7593 16.003 14.7229 15.0417 15.5297C14.2975 16.1565 13.4152 16.5699 12.3468 16.7966C11.6956 16.93 11.0557 17 10.4412 17ZM5.49665 9.35174C5.49665 9.67847 5.49665 10.0052 5.49665 10.3319C5.49665 11.1288 5.49946 11.9523 5.49101 12.7625C5.48537 13.2659 5.6235 13.7026 5.90822 14.0961C6.26059 14.5862 6.71445 14.9562 7.29516 15.2363C8.33255 15.7331 9.40095 15.9831 10.475 15.9865C11.4165 15.9865 12.3863 15.7931 13.3504 15.4063C14.0974 15.1096 14.6696 14.6795 15.0925 14.0927C15.2645 13.856 15.4928 13.4859 15.4956 13.0058C15.5041 12.069 15.5012 11.1554 15.5012 10.1852C15.5012 9.82184 15.5012 9.45843 15.5012 9.09169V8.79829L15.2701 8.90831C15.2419 8.92165 15.2165 8.93499 15.1912 8.94499C15.1404 8.96833 15.0981 8.98833 15.053 9.01167C14.7232 9.17837 14.3934 9.34841 14.0664 9.51511C12.9952 10.0619 11.8873 10.6287 10.7992 11.1888C10.692 11.2455 10.5934 11.2721 10.5004 11.2721C10.4073 11.2721 10.3143 11.2455 10.2128 11.1955C9.11905 10.6287 8.00273 10.0586 6.92587 9.50844C6.59887 9.34174 6.26905 9.1717 5.94205 9.005C5.89694 8.98166 5.85184 8.96166 5.80392 8.94165C5.78136 8.93165 5.75599 8.92165 5.7278 8.90831L5.49665 8.80163V9.35174ZM10.506 2.1269C10.4242 2.1269 10.3453 2.14357 10.2777 2.17691C9.20926 2.71702 8.12676 3.27047 7.08092 3.80725C6.73982 3.98062 6.39872 4.15732 6.05762 4.33069C5.3416 4.69744 4.62276 5.06418 3.88982 5.43759L2.55926 6.11773L2.89472 6.30777C2.92573 6.32444 2.95392 6.34111 2.97647 6.35445C3.01875 6.37779 3.05258 6.39779 3.08923 6.4178L3.91237 6.83788C6.00125 7.90811 8.16059 9.01167 10.2861 10.0919C10.3481 10.1219 10.4214 10.1386 10.5004 10.1386C10.5821 10.1386 10.6667 10.1186 10.7343 10.0852C11.6449 9.62846 12.5639 9.15837 13.4547 8.7016L14.041 8.40154C14.3201 8.25818 14.5992 8.11482 14.8895 7.96478L15.738 7.52803L15.2757 7.378C15.2504 7.37133 15.2278 7.36133 15.2109 7.35466C15.1714 7.34132 15.1348 7.32799 15.0953 7.32132L14.6161 7.2513C13.2771 7.05126 11.8929 6.84788 10.5285 6.64784C10.2269 6.6045 10.0437 6.37112 10.0719 6.07106C10.0972 5.79767 10.2833 5.62096 10.5455 5.62096C10.5765 5.62096 10.6075 5.6243 10.6413 5.62763C11.0106 5.68764 11.3855 5.74099 11.7492 5.79433L12.0085 5.83434C12.4708 5.90436 12.936 5.97104 13.3983 6.04105C14.5005 6.20442 15.6394 6.37112 16.7613 6.54115L16.8149 6.54782C16.9728 6.57116 17.1363 6.59783 17.2998 6.59783C17.6296 6.59783 17.8861 6.49114 18.1116 6.26776L18.3005 6.07772L18.0806 5.9377C18.0693 5.93103 18.0609 5.92436 18.0496 5.91769C18.0242 5.90102 17.9932 5.88102 17.9594 5.86101L17.2631 5.50427C15.1179 4.41738 12.905 3.28381 10.7259 2.17691C10.661 2.14357 10.5849 2.1269 10.506 2.1269Z" fill="#212121" stroke="#212121" stroke-width="0.3"/>
</svg>
