<svg width="24" height="24" viewBox="0 0 24 24" fill="none" xmlns="http://www.w3.org/2000/svg">
<path d="M12.6565 22.2209C12.3092 22.5682 11.7946 22.7565 11.2423 22.7314C10.6858 22.7105 10.1753 22.4762 9.84479 22.087C9.43057 21.5975 9.15023 21.041 8.85735 20.4469C8.80714 20.3465 8.76111 20.2502 8.71091 20.1498C8.23392 19.2042 7.71928 18.1708 7.14188 16.9992C7.02473 16.7649 6.85318 16.5934 6.61051 16.4679C6.34691 16.3381 6.08331 16.2001 5.81972 16.0704C4.65236 15.4804 3.44735 14.8779 2.27163 14.2545C1.87833 14.0453 1.52687 13.7775 1.25072 13.4762C0.690056 12.8737 0.627295 11.6227 1.38043 10.8696C1.52687 10.7231 1.69842 10.6018 1.89088 10.5014C2.60217 10.1415 3.36367 9.84029 4.08333 9.57251C7.46824 8.27964 11.0372 6.92818 15.0037 5.43866C15.3761 5.30058 15.7778 5.18343 16.2004 5.10393C16.8364 4.97841 17.397 5.16251 17.9075 5.65623C18.4347 6.20016 18.623 6.80685 18.4598 7.46375C18.3175 8.02441 18.1292 8.62273 17.8782 9.29218C16.6941 12.4344 15.1293 16.5683 13.5477 20.677C13.3427 21.2084 13.0958 21.6728 12.8071 22.0536C12.7569 22.1122 12.7067 22.1707 12.6565 22.2209ZM8.61049 15.9574C8.42221 16.1457 8.38873 16.3465 8.51426 16.5892C8.69417 16.9448 8.87827 17.313 9.054 17.6645C9.25902 18.0787 9.47241 18.5097 9.68998 18.9281C10.0916 19.7063 10.4557 20.3883 10.8029 21.0034C10.9034 21.1791 11.0624 21.2963 11.2464 21.3214C11.418 21.3423 11.5937 21.2837 11.7234 21.154C11.7736 21.1038 11.8197 21.041 11.8531 20.9741C12.0623 20.564 12.2255 20.2 12.3552 19.8611C13.8657 15.8904 15.2004 12.38 16.4305 9.13319C16.6397 8.57252 16.8489 7.96165 17.0539 7.27128C17.1209 7.04534 17.079 6.83614 16.941 6.68133C16.7945 6.52651 16.5686 6.46794 16.3301 6.52233C16.0581 6.58509 15.8154 6.65204 15.5979 6.73572C10.9159 8.50558 7.09586 9.94908 3.58124 11.288C3.20468 11.4302 2.84067 11.6102 2.57289 11.7524C2.51849 11.7817 2.4641 11.8194 2.42226 11.8612C2.30929 11.9742 2.2549 12.1206 2.25908 12.2754C2.26745 12.4428 2.34695 12.5976 2.47665 12.7106C2.59381 12.811 2.71514 12.8905 2.8323 12.9491C3.41807 13.2503 3.99965 13.5474 4.58542 13.8486C5.39294 14.2628 6.22976 14.6896 7.04983 15.108C7.32598 15.2503 7.50171 15.0746 7.56866 15.0076L7.58539 14.9909C7.8992 14.6771 8.20882 14.3675 8.52262 14.0536L9.12931 13.447L9.29668 13.2796C9.46822 13.108 9.63977 12.9365 9.81132 12.765C9.98286 12.5934 10.1544 12.4219 10.326 12.2503C10.5896 11.9867 10.8071 11.7691 11.0121 11.5725C11.1711 11.4219 11.3678 11.3507 11.5728 11.3717C11.7778 11.3926 11.9619 11.5014 12.0833 11.6813C12.2925 11.9909 12.2506 12.334 11.9577 12.6269C11.4557 13.129 10.9577 13.6269 10.4557 14.129C9.76529 14.811 9.16697 15.4093 8.61049 15.9574Z" fill="#1D8BFA"/>
</svg>
