<svg width="74" height="74" viewBox="0 0 74 74" fill="none" xmlns="http://www.w3.org/2000/svg">
<path d="M39.5515 69.4443C38.4663 70.5296 36.858 71.118 35.1321 71.0395C33.3931 70.9741 31.7979 70.2419 30.765 69.0259C29.4705 67.4961 28.5945 65.7571 27.6792 63.9005C27.5223 63.5867 27.3785 63.2859 27.2216 62.9721C25.731 60.0171 24.1228 56.7875 22.3184 53.1265C21.9523 52.3943 21.4162 51.8582 20.6578 51.4659C19.8341 51.0606 19.0104 50.6291 18.1866 50.2238C14.5386 48.3802 10.773 46.4974 7.09885 44.5492C5.86978 43.8954 4.77147 43.0586 3.9085 42.1172C2.15643 40.2343 1.9603 36.3249 4.31383 33.9713C4.77147 33.5137 5.30755 33.1345 5.90901 32.8207C8.13179 31.6962 10.5115 30.7548 12.7604 29.918C23.3382 25.8778 34.4914 21.6545 46.8867 16.9997C48.0504 16.5682 49.3056 16.2021 50.6262 15.9537C52.6136 15.5614 54.3657 16.1368 55.9609 17.6796C57.6083 19.3794 58.1967 21.2753 57.6868 23.3281C57.2422 25.0802 56.6539 26.9499 55.8693 29.042C52.1691 38.8614 47.2789 51.7797 42.3365 64.6196C41.6958 66.2801 40.9244 67.7315 40.0222 68.9213C39.8653 69.1044 39.7084 69.2874 39.5515 69.4443ZM26.9078 49.8708C26.3194 50.4591 26.2148 51.0868 26.6071 51.8451C27.1693 52.9565 27.7446 54.1071 28.2937 55.2054C28.9344 56.4999 29.6013 57.8466 30.2812 59.1542C31.5364 61.5861 32.6739 63.7174 33.7592 65.6395C34.073 66.1886 34.5698 66.5547 35.1452 66.6332C35.6812 66.6985 36.2304 66.5155 36.6357 66.1102C36.7926 65.9533 36.9365 65.7571 37.0411 65.5479C37.6948 64.2666 38.2048 63.129 38.6101 62.0699C43.3302 49.6616 47.5012 38.6915 51.3453 28.5451C51.9991 26.793 52.6528 24.8841 53.2935 22.7267C53.5027 22.0206 53.372 21.3668 52.9405 20.883C52.4829 20.3993 51.7768 20.2162 51.0315 20.3862C50.1816 20.5823 49.4233 20.7915 48.7434 21.053C34.1122 26.5838 22.1746 31.0948 11.1914 35.2788C10.0146 35.7234 8.87708 36.2856 8.04027 36.7302C7.87029 36.8217 7.70031 36.9394 7.56956 37.0701C7.21653 37.4232 7.04655 37.8808 7.05963 38.3646C7.08578 38.8876 7.3342 39.3714 7.73954 39.7244C8.10564 40.0382 8.48482 40.2866 8.85093 40.4697C10.6815 41.4111 12.4989 42.3395 14.3294 43.2809C16.853 44.5753 19.468 45.909 22.0307 47.2165C22.8937 47.6611 23.4429 47.1119 23.6521 46.9027L23.7044 46.8504C24.685 45.8698 25.6526 44.9022 26.6332 43.9215L28.5291 42.0256L29.0521 41.5026C29.5882 40.9666 30.1243 40.4305 30.6604 39.8944C31.1964 39.3583 31.7325 38.8222 32.2686 38.2861C33.0923 37.4624 33.7723 36.7825 34.4129 36.168C34.9098 35.6972 35.5243 35.475 36.165 35.5403C36.8057 35.6057 37.381 35.9457 37.7602 36.5079C38.414 37.4755 38.2832 38.5476 37.3679 39.4629C35.7989 41.0319 34.243 42.5879 32.6739 44.1569C30.5165 46.2882 28.6468 48.1579 26.9078 49.8708Z" fill="#F78F1E"/>
</svg>
