<svg width="13" height="12" viewBox="0 0 13 12" fill="none" xmlns="http://www.w3.org/2000/svg">
<path d="M9.54823 2.41272C9.54823 2.48424 9.54823 2.52256 9.54823 2.56343C9.54823 4.89548 9.54823 7.23009 9.54823 9.56215C9.54823 9.78948 9.45627 9.94529 9.28003 10.0117C9.02204 10.1088 8.74874 9.94018 8.71809 9.66177C8.71298 9.61579 8.71553 9.56726 8.71553 9.51873C8.71553 7.19944 8.71553 4.88016 8.71553 2.56087C8.71553 2.52 8.71553 2.48169 8.71553 2.42039C8.67466 2.4587 8.64657 2.48169 8.62358 2.50723C8.08462 3.04619 7.54567 3.58514 7.00927 4.12664C6.89689 4.23903 6.77173 4.30544 6.60825 4.27735C6.29663 4.22115 6.16381 3.85845 6.3656 3.61323C6.38603 3.58769 6.41157 3.56215 6.43456 3.53916C7.22128 2.74989 8.01055 1.95806 8.79727 1.16879C8.92754 1.03852 9.07058 0.964448 9.25448 1.02575C9.31068 1.04363 9.36943 1.07428 9.4103 1.1177C10.2379 1.94274 11.0629 2.76777 11.8854 3.59535C12.0029 3.71285 12.0335 3.86355 11.9748 4.01936C11.916 4.17518 11.796 4.26713 11.63 4.28501C11.4818 4.30034 11.3669 4.23648 11.2673 4.13686C10.9148 3.78182 10.5597 3.42933 10.2072 3.07428C9.99012 2.85717 9.78067 2.64516 9.54823 2.41272Z" fill="#212121" stroke="#212121" stroke-width="0.2"/>
<path d="M3.44947 9.59597C3.44947 9.52701 3.44947 9.48103 3.44947 9.43761C3.44947 7.12088 3.44947 4.8067 3.44947 2.48997C3.44947 2.44655 3.44947 2.40057 3.45202 2.35715C3.47501 2.13493 3.65125 1.97656 3.87092 1.97656C4.08548 1.97912 4.25662 2.13748 4.27961 2.3546C4.28471 2.39802 4.28216 2.444 4.28216 2.48742C4.28216 4.80415 4.28216 7.11833 4.28216 9.43506C4.28216 9.47848 4.28216 9.52446 4.28216 9.59342C4.32047 9.55766 4.34602 9.53467 4.37156 9.51168C4.91051 8.97273 5.44947 8.43378 5.98586 7.89227C6.10336 7.77477 6.23363 7.70325 6.40477 7.73901C6.69851 7.80032 6.82878 8.15025 6.64742 8.3878C6.62188 8.42356 6.58867 8.45421 6.55802 8.48486C5.77641 9.26903 4.9948 10.0506 4.21575 10.8322C3.97565 11.0723 3.76109 11.0723 3.52099 10.8322C2.73171 10.043 1.94244 9.2537 1.15572 8.46188C0.966707 8.27286 0.948827 8.03787 1.10719 7.86162C1.24768 7.70581 1.48267 7.68027 1.65125 7.80798C1.69212 7.83863 1.72788 7.87439 1.76364 7.91015C2.29238 8.43889 2.82111 8.97018 3.34985 9.49891C3.37795 9.52956 3.40604 9.55511 3.44947 9.59597Z" fill="#212121" stroke="#212121" stroke-width="0.2"/>
</svg>
