<svg width="19" height="24" viewBox="0 0 19 24" fill="none" xmlns="http://www.w3.org/2000/svg">
<path d="M12.1733 23.0005C11.724 23.0005 11.2747 23.0005 10.8253 23.0005C10.376 23.0005 9.92671 22.9956 9.47739 22.9956C9.02807 22.9956 8.58369 22.9956 8.13437 22.9956C7.68506 22.9956 7.24068 22.9956 6.79136 22.9956C6.15442 22.9956 5.6261 22.9956 5.1274 22.9907C4.15471 22.9858 3.25607 22.6825 2.53025 22.1199C1.79949 21.5524 1.31067 20.7745 1.11317 19.8695C0.816918 18.4997 1.08848 17.1495 1.91799 15.853C3.09313 14.0283 4.81634 13.0841 7.04317 13.0498C7.74924 13.04 8.49482 13.0352 9.31939 13.0352C10.2822 13.0352 11.2352 13.04 11.956 13.0498C13.4077 13.0645 14.7408 13.5293 15.8123 14.405C16.8837 15.2807 17.5997 16.4792 17.8811 17.8735C18.1181 19.0574 17.9848 20.0554 17.4762 20.9262C16.6813 22.2764 15.4666 22.9711 13.8669 22.9907C13.3682 23.0005 12.8251 23.0005 12.1733 23.0005ZM9.2947 21.66H9.4922C9.94646 21.66 10.4007 21.66 10.8599 21.66C11.3142 21.66 11.7734 21.66 12.2276 21.66C12.9139 21.66 13.4817 21.66 14.0101 21.6502C15.4469 21.6356 16.6023 20.5006 16.6467 19.0623C16.6813 17.849 16.2221 16.6847 15.3531 15.7894C14.489 14.8991 13.3386 14.4001 12.119 14.3903C11.25 14.3805 10.3711 14.3756 9.51195 14.3756C8.66269 14.3756 7.80356 14.3805 6.95924 14.3903C5.45822 14.405 4.22383 15.0214 3.29063 16.2248C2.63888 17.0663 2.32781 18.0398 2.36731 19.121C2.41669 20.5006 3.58195 21.6356 4.95953 21.6551C5.49278 21.66 6.0606 21.6649 6.7568 21.6649C7.21599 21.6649 7.67024 21.6649 8.12944 21.66C8.51457 21.66 8.90463 21.6551 9.2947 21.66Z" fill="#F78F1E" stroke="#F78F1E" stroke-width="0.3"/>
<path d="M9.50693 10.9457C6.7419 10.9457 4.48544 8.71492 4.4805 5.96553C4.47557 4.65444 5.00388 3.41183 5.95683 2.46275C6.90484 1.51857 8.14911 1 9.45756 1C10.8203 1 12.0942 1.51368 13.0422 2.45297C13.9902 3.38737 14.5136 4.64954 14.5186 5.99978C14.5235 7.30109 14.0001 8.5388 13.0472 9.4781C12.0942 10.4223 10.8401 10.9408 9.52175 10.9457H9.50693ZM9.48718 2.33556C7.47266 2.33556 5.83339 3.95486 5.82846 5.94596C5.82846 6.92929 6.20865 7.8539 6.90978 8.54859C7.5961 9.2286 8.50955 9.60529 9.47731 9.60529C11.5461 9.60529 13.1657 8.00556 13.1706 5.97042C13.1706 3.97443 11.5264 2.34045 9.502 2.33556H9.48718Z" fill="#F78F1E" stroke="#F78F1E" stroke-width="0.3"/>
</svg>
