<svg width="15" height="20" viewBox="0 0 15 20" fill="none" xmlns="http://www.w3.org/2000/svg">
<path d="M10.0581 19.0001C9.6939 19.0001 9.32966 19.0001 8.96541 19.0001C8.60117 19.0001 8.23693 18.9961 7.87269 18.9961C7.50844 18.9961 7.1482 18.9961 6.78396 18.9961C6.41972 18.9961 6.05948 18.9961 5.69523 18.9961C5.17889 18.9961 4.7506 18.9961 4.34633 18.9921C3.55781 18.9881 2.82932 18.7399 2.24093 18.2796C1.64854 17.8153 1.25227 17.1789 1.09217 16.4384C0.852005 15.3177 1.07215 14.2129 1.7446 13.1522C2.69724 11.6592 4.09417 10.8867 5.89937 10.8587C6.47175 10.8507 7.07615 10.8467 7.7446 10.8467C8.52512 10.8467 9.29764 10.8507 9.88202 10.8587C11.0588 10.8707 12.1395 11.2509 13.0081 11.9674C13.8767 12.6839 14.4571 13.6646 14.6852 14.8053C14.8774 15.774 14.7693 16.5905 14.357 17.303C13.7126 18.4077 12.7279 18.9761 11.4311 18.9921C11.0268 19.0001 10.5865 19.0001 10.0581 19.0001ZM7.72459 17.9034H7.88469C8.25294 17.9034 8.62118 17.9034 8.99343 17.9034C9.36168 17.9034 9.73393 17.9034 10.1022 17.9034C10.6585 17.9034 11.1188 17.9034 11.5471 17.8954C12.7119 17.8834 13.6485 16.9548 13.6846 15.778C13.7126 14.7853 13.3403 13.8327 12.6359 13.1002C11.9354 12.3717 11.0028 11.9634 10.0141 11.9554C9.30964 11.9474 8.59717 11.9434 7.9007 11.9434C7.21224 11.9434 6.51578 11.9474 5.83132 11.9554C4.61451 11.9674 3.61385 12.4718 2.85734 13.4564C2.32899 14.1449 2.07682 14.9414 2.10884 15.826C2.14887 16.9548 3.0935 17.8834 4.21024 17.8994C4.64253 17.9034 5.10284 17.9074 5.66722 17.9074C6.03946 17.9074 6.40771 17.9074 6.77996 17.9034C7.09216 17.9034 7.40838 17.8994 7.72459 17.9034Z" fill="#212121" stroke="#212121" stroke-width="0.4"/>
<path d="M7.89677 9.13742C5.65527 9.13742 3.82605 7.31221 3.82205 5.06271C3.81805 3.98999 4.24633 2.97332 5.01885 2.1968C5.78736 1.42428 6.79603 1 7.85674 1C8.96148 1 9.99416 1.42028 10.7627 2.18879C11.5312 2.9533 11.9555 3.98599 11.9595 5.09073C11.9635 6.15544 11.5392 7.16811 10.7667 7.93662C9.99416 8.70914 8.97749 9.13342 7.90877 9.13742H7.89677ZM7.88075 2.09273C6.24767 2.09273 4.91878 3.41761 4.91478 5.0467C4.91478 5.85123 5.22298 6.60774 5.79136 7.17612C6.34773 7.73249 7.08823 8.04069 7.87275 8.04069C9.54987 8.04069 10.8627 6.73182 10.8667 5.06671C10.8667 3.43362 9.53386 2.09673 7.89276 2.09273H7.88075Z" fill="#212121" stroke="#212121" stroke-width="0.4"/>
</svg>
