<svg width="19" height="12" viewBox="0 0 19 12" fill="none" xmlns="http://www.w3.org/2000/svg">
<g clip-path="url(#clip0_183_1830)">
<path d="M9.18618 0C11.4828 0.0278035 13.5958 0.884152 15.4642 2.40222C16.2983 3.08063 17.0212 3.86469 17.6551 4.73216C18.2446 5.53846 18.2501 6.45598 17.6551 7.25672C16.2483 9.15848 14.5022 10.6265 12.2557 11.4217C9.35856 12.4449 6.59489 12.0834 3.97024 10.5264C2.53558 9.67563 1.36227 8.53012 0.394707 7.18443C-0.111317 6.47822 -0.13912 5.55514 0.361343 4.86006C1.79044 2.8582 3.60879 1.35125 5.95541 0.528267C6.95634 0.177943 7.99063 0.0055607 9.18618 0ZM8.88034 10.6599C9.83122 10.6599 10.6097 10.5542 11.3715 10.3262C13.6069 9.65338 15.2918 8.24652 16.632 6.38925C16.8266 6.12234 16.8043 5.82762 16.593 5.53846C15.8646 4.53753 15.0249 3.64782 13.9962 2.94717C11.416 1.18443 8.65791 0.817424 5.74967 2.0241C3.96468 2.76367 2.59675 4.03151 1.47348 5.58295C1.2733 5.86098 1.28998 6.1557 1.50129 6.45042C2.01843 7.15663 2.59675 7.81279 3.25847 8.38554C4.92112 9.82576 6.82288 10.6321 8.88034 10.6599Z" fill="#F78F1E"/>
<path d="M5.76064 5.62156C5.81624 4.62063 6.32227 3.51405 7.63459 2.95798C8.81902 2.45752 10.0146 2.52425 11.0655 3.30831C12.1165 4.09237 12.4835 5.21007 12.3445 6.48903C12.1499 8.25177 10.7653 9.50849 8.66332 9.30831C6.62811 9.11368 5.73283 7.45659 5.76064 5.62156ZM9.04701 7.99598C10.2092 7.99598 11.0433 7.173 11.0489 6.01637C11.0544 4.84306 10.2259 4.00339 9.05813 4.00339C7.89595 4.00339 7.06184 4.82638 7.05628 5.983C7.04516 7.15631 7.8737 7.99042 9.04701 7.99598Z" fill="#F78F1E"/>
</g>
<defs>
<clipPath id="clip0_183_1830">
<rect width="18.1001" height="12" fill="white"/>
</clipPath>
</defs>
</svg>
